Pilowlava-Regular.ufo
<glyph name="numbersign" format="2">
  <advance width="861"/>
  <unicode hex="0023"/>
  <outline>
    <contour>
      <point x="677" y="694" type="line" smooth="yes"/>
      <point x="719" y="765"/>
      <point x="600" y="824"/>
      <point x="575" y="716" type="curve" smooth="yes"/>
      <point x="528" y="511" type="line" smooth="yes"/>
      <point x="522" y="484"/>
      <point x="548" y="478"/>
      <point x="563" y="503" type="curve" smooth="yes"/>
    </contour>
    <contour>
      <point x="253" y="102" type="line" smooth="yes"/>
      <point x="210" y="43"/>
      <point x="239" y="-5"/>
      <point x="278" y="-14" type="curve" smooth="yes"/>
      <point x="315" y="-23"/>
      <point x="338" y="-7"/>
      <point x="353" y="57" type="curve" smooth="yes"/>
      <point x="396" y="235" type="line" smooth="yes"/>
      <point x="404" y="269"/>
      <point x="376" y="269"/>
      <point x="362" y="250" type="curve" smooth="yes"/>
    </contour>
    <contour>
      <point x="470" y="255" type="curve" smooth="yes"/>
      <point x="429" y="75" type="line" smooth="yes"/>
      <point x="413" y="6"/>
      <point x="475" y="-13"/>
      <point x="511" y="8" type="curve" smooth="yes"/>
      <point x="535" y="22"/>
      <point x="551" y="47"/>
      <point x="540" y="88" type="curve" smooth="yes"/>
      <point x="505" y="219" type="line" smooth="yes"/>
      <point x="496" y="253"/>
      <point x="506" y="262"/>
      <point x="517" y="269" type="curve" smooth="yes"/>
      <point x="528" y="276"/>
      <point x="555" y="278"/>
      <point x="575" y="250" type="curve" smooth="yes"/>
      <point x="635" y="171" type="line" smooth="yes"/>
      <point x="715" y="66"/>
      <point x="837" y="222"/>
      <point x="690" y="265" type="curve" smooth="yes"/>
      <point x="563" y="303" type="line" smooth="yes"/>
      <point x="509" y="319"/>
      <point x="480" y="297"/>
    </contour>
    <contour>
      <point x="413" y="310" type="line" smooth="yes"/>
      <point x="439" y="311"/>
      <point x="440" y="339"/>
      <point x="418" y="345" type="curve" smooth="yes"/>
      <point x="111" y="434" type="line" smooth="yes"/>
      <point x="51" y="451"/>
      <point x="23" y="395"/>
      <point x="32" y="351" type="curve" smooth="yes"/>
      <point x="40" y="310"/>
      <point x="65" y="300"/>
      <point x="132" y="302" type="curve" smooth="yes"/>
    </contour>
    <contour>
      <point x="451" y="481" type="curve" smooth="yes"/>
      <point x="500" y="694" type="line" smooth="yes"/>
      <point x="526" y="808"/>
      <point x="374" y="796"/>
      <point x="390" y="689" type="curve" smooth="yes"/>
      <point x="420" y="493" type="line" smooth="yes"/>
      <point x="426" y="453"/>
      <point x="399" y="460"/>
      <point x="390" y="472" type="curve" smooth="yes"/>
      <point x="330" y="552" type="line" smooth="yes"/>
      <point x="250" y="658"/>
      <point x="127" y="500"/>
      <point x="274" y="458" type="curve" smooth="yes"/>
      <point x="359" y="434" type="line" smooth="yes"/>
      <point x="414" y="418"/>
      <point x="441" y="439"/>
    </contour>
    <contour>
      <point x="494" y="365" type="curve" smooth="yes"/>
      <point x="747" y="356" type="line" smooth="yes"/>
      <point x="913" y="351"/>
      <point x="862" y="584"/>
      <point x="722" y="514" type="curve" smooth="yes"/>
      <point x="489" y="400" type="line" smooth="yes"/>
      <point x="464" y="387"/>
      <point x="463" y="366"/>
    </contour>
  </outline>
</glyph>
<glyph name="dollar" format="2">
  <advance width="887"/>
  <unicode hex="0024"/>
  <outline>
    <contour>
      <point x="692" y="363" type="curve" smooth="yes"/>
      <point x="364" y="506" type="line" smooth="yes"/>
      <point x="348" y="514"/>
      <point x="338" y="528"/>
      <point x="338" y="543" type="curve" smooth="yes"/>
      <point x="337" y="573"/>
      <point x="372" y="604"/>
      <point x="439" y="583" type="curve" smooth="yes"/>
      <point x="642" y="520" type="line" smooth="yes"/>
      <point x="804" y="470"/>
      <point x="833" y="547"/>
      <point x="834" y="599" type="curve" smooth="yes"/>
      <point x="835" y="664"/>
      <point x="790" y="723"/>
      <point x="665" y="677" type="curve" smooth="yes"/>
      <point x="497" y="615" type="line" smooth="yes"/>
      <point x="453" y="599"/>
      <point x="442" y="627"/>
      <point x="455" y="648" type="curve" smooth="yes"/>
      <point x="521" y="755" type="line" smooth="yes"/>
      <point x="569" y="833"/>
      <point x="514" y="894"/>
      <point x="449" y="894" type="curve" smooth="yes"/>
      <point x="380" y="894"/>
      <point x="347" y="846"/>
      <point x="374" y="762" type="curve" smooth="yes"/>
      <point x="412" y="644" type="line" smooth="yes"/>
      <point x="418" y="625"/>
      <point x="392" y="612"/>
      <point x="375" y="627" type="curve" smooth="yes"/>
      <point x="320" y="674" type="line" smooth="yes"/>
      <point x="222" y="756"/>
      <point x="80" y="699"/>
      <point x="80" y="574" type="curve" smooth="yes"/>
      <point x="80" y="517"/>
      <point x="104" y="453"/>
      <point x="202" y="429" type="curve" smooth="yes"/>
      <point x="356" y="391" type="line" smooth="yes"/>
      <point x="388" y="383"/>
      <point x="397" y="371"/>
      <point x="402" y="344" type="curve" smooth="yes"/>
      <point x="412" y="291" type="line" smooth="yes"/>
      <point x="425" y="220"/>
      <point x="402" y="176"/>
      <point x="319" y="122" type="curve" smooth="yes"/>
      <point x="245" y="74" type="line" smooth="yes"/>
      <point x="208" y="50"/>
      <point x="165" y="70"/>
      <point x="196" y="116" type="curve" smooth="yes"/>
      <point x="286" y="251" type="line" smooth="yes"/>
      <point x="298" y="270"/>
      <point x="307" y="290"/>
      <point x="303" y="308" type="curve" smooth="yes"/>
      <point x="295" y="341"/>
      <point x="245" y="359"/>
      <point x="188" y="346" type="curve" smooth="yes"/>
      <point x="107" y="326"/>
      <point x="75" y="263"/>
      <point x="75" y="198" type="curve" smooth="yes"/>
      <point x="75" y="71"/>
      <point x="183" y="-18"/>
      <point x="283" y="47" type="curve" smooth="yes"/>
      <point x="388" y="114" type="line" smooth="yes"/>
      <point x="417" y="133"/>
      <point x="419" y="105"/>
      <point x="406" y="80" type="curve" smooth="yes"/>
      <point x="355" y="-20" type="line" smooth="yes"/>
      <point x="303" y="-122"/>
      <point x="371" y="-174"/>
      <point x="437" y="-173" type="curve" smooth="yes"/>
      <point x="496" y="-172"/>
      <point x="553" y="-128"/>
      <point x="518" y="-37" type="curve" smooth="yes"/>
      <point x="453" y="131" type="line" smooth="yes"/>
      <point x="443" y="157"/>
      <point x="473" y="167"/>
      <point x="488" y="150" type="curve" smooth="yes"/>
      <point x="544" y="88" type="line" smooth="yes"/>
      <point x="576" y="52"/>
      <point x="614" y="23"/>
      <point x="662" y="23" type="curve" smooth="yes"/>
      <point x="758" y="23"/>
      <point x="806" y="100"/>
      <point x="810" y="188" type="curve" smooth="yes"/>
      <point x="812" y="244"/>
      <point x="808" y="312"/>
    </contour>
    <contour>
      <point x="678" y="257" type="curve" smooth="yes"/>
      <point x="557" y="210" type="line" smooth="yes"/>
      <point x="484" y="182"/>
      <point x="445" y="202"/>
      <point x="457" y="284" type="curve" smooth="yes"/>
      <point x="464" y="332" type="line" smooth="yes"/>
      <point x="468" y="363"/>
      <point x="481" y="375"/>
      <point x="524" y="363" type="curve" smooth="yes"/>
      <point x="690" y="318" type="line" smooth="yes"/>
      <point x="706" y="314"/>
      <point x="720" y="302"/>
      <point x="718" y="291" type="curve" smooth="yes"/>
      <point x="718" y="281"/>
      <point x="704" y="267"/>
    </contour>
  </outline>
</glyph>
<glyph name="percent" format="2">
  <advance width="781"/>
  <unicode hex="0025"/>
  <outline>
    <contour>
      <point x="776" y="707"/>
      <point x="708" y="775"/>
      <point x="646" y="775" type="curve" smooth="yes"/>
      <point x="255" y="774" type="line" smooth="yes"/>
      <point x="-26" y="774"/>
      <point x="-2" y="429"/>
      <point x="226" y="429" type="curve" smooth="yes"/>
      <point x="301" y="429"/>
      <point x="359" y="534"/>
      <point x="359" y="580" type="curve" smooth="yes"/>
      <point x="359" y="670"/>
      <point x="234" y="662"/>
      <point x="245" y="577" type="curve" smooth="yes"/>
      <point x="255" y="498" type="line" smooth="yes"/>
      <point x="260" y="462"/>
      <point x="225" y="454"/>
      <point x="206" y="485" type="curve" smooth="yes"/>
      <point x="130" y="608" type="line" smooth="yes"/>
      <point x="108" y="644"/>
      <point x="131" y="668"/>
      <point x="155" y="673" type="curve" smooth="yes"/>
      <point x="549" y="746" type="line" smooth="yes"/>
      <point x="566" y="750"/>
      <point x="588" y="732"/>
      <point x="571" y="702" type="curve" smooth="yes"/>
      <point x="133" y="15" type="line" smooth="yes"/>
      <point x="128" y="6"/>
      <point x="127" y="-6"/>
      <point x="139" y="-13" type="curve" smooth="yes"/>
      <point x="148" y="-18"/>
      <point x="161" y="-15"/>
      <point x="171" y="-3" type="curve" smooth="yes"/>
      <point x="718" y="639" type="line" smooth="yes"/>
    </contour>
    <contour>
      <point x="588" y="267" type="curve" smooth="yes"/>
      <point x="494" y="267"/>
      <point x="444" y="220"/>
      <point x="444" y="129" type="curve" smooth="yes"/>
      <point x="444" y="38"/>
      <point x="494" y="-8"/>
      <point x="588" y="-8" type="curve" smooth="yes"/>
      <point x="682" y="-8"/>
      <point x="731" y="38"/>
      <point x="731" y="129" type="curve" smooth="yes"/>
      <point x="731" y="220"/>
      <point x="682" y="267"/>
    </contour>
    <contour>
      <point x="516" y="149" type="curve" smooth="yes"/>
      <point x="567" y="204" type="line" smooth="yes"/>
      <point x="585" y="224"/>
      <point x="613" y="213"/>
      <point x="621" y="190" type="curve" smooth="yes"/>
      <point x="649" y="105" type="line" smooth="yes"/>
      <point x="662" y="65"/>
      <point x="633" y="50"/>
      <point x="601" y="64" type="curve" smooth="yes"/>
      <point x="529" y="96" type="line" smooth="yes"/>
      <point x="504" y="107"/>
      <point x="497" y="129"/>
    </contour>
  </outline>
</glyph>
<glyph name="ampersand" format="2">
  <advance width="931"/>
  <unicode hex="0026"/>
  <outline>
    <contour>
      <point x="433" y="320" type="curve" smooth="yes"/>
      <point x="550" y="186" type="line" smooth="yes"/>
      <point x="574" y="158"/>
      <point x="575" y="132"/>
      <point x="535" y="132" type="curve" smooth="yes"/>
      <point x="166" y="129" type="line" smooth="yes"/>
      <point x="123" y="129"/>
      <point x="120" y="165"/>
      <point x="149" y="188" type="curve" smooth="yes"/>
      <point x="318" y="320" type="line" smooth="yes"/>
      <point x="375" y="364"/>
      <point x="389" y="370"/>
    </contour>
    <contour>
      <point x="603" y="334" type="line" smooth="yes"/>
      <point x="576" y="360"/>
      <point x="590" y="376"/>
      <point x="620" y="385" type="curve" smooth="yes"/>
      <point x="845" y="450" type="line" smooth="yes"/>
      <point x="906" y="468"/>
      <point x="931" y="506"/>
      <point x="931" y="544" type="curve" smooth="yes"/>
      <point x="931" y="590"/>
      <point x="893" y="636"/>
      <point x="842" y="636" type="curve" smooth="yes"/>
      <point x="815" y="636"/>
      <point x="784" y="623"/>
      <point x="753" y="591" type="curve" smooth="yes"/>
      <point x="577" y="406" type="line" smooth="yes"/>
      <point x="533" y="360"/>
      <point x="520" y="346"/>
      <point x="483" y="346" type="curve" smooth="yes"/>
      <point x="447" y="346"/>
      <point x="436" y="368"/>
      <point x="404" y="425" type="curve" smooth="yes"/>
      <point x="268" y="670" type="line"/>
      <point x="242" y="725"/>
      <point x="304" y="772"/>
      <point x="353" y="722" type="curve" smooth="yes"/>
      <point x="506" y="563" type="line" smooth="yes"/>
      <point x="562" y="504"/>
      <point x="634" y="547"/>
      <point x="648" y="600" type="curve" smooth="yes"/>
      <point x="670" y="683"/>
      <point x="598" y="773"/>
      <point x="370" y="775" type="curve" smooth="yes"/>
      <point x="149" y="777"/>
      <point x="87" y="672"/>
      <point x="87" y="606" type="curve" smooth="yes"/>
      <point x="87" y="517"/>
      <point x="147" y="470"/>
      <point x="314" y="428" type="curve" smooth="yes"/>
      <point x="330" y="424"/>
      <point x="340" y="413"/>
      <point x="340" y="400" type="curve" smooth="yes"/>
      <point x="340" y="387"/>
      <point x="332" y="376"/>
      <point x="309" y="374" type="curve" smooth="yes"/>
      <point x="199" y="365" type="line" smooth="yes"/>
      <point x="83" y="356"/>
      <point x="50" y="289"/>
      <point x="50" y="192" type="curve" smooth="yes"/>
      <point x="50" y="21"/>
      <point x="195" y="-15"/>
      <point x="318" y="-15" type="curve" smooth="yes"/>
      <point x="410" y="-15"/>
      <point x="489" y="7"/>
      <point x="546" y="74" type="curve" smooth="yes"/>
      <point x="562" y="93"/>
      <point x="572" y="107"/>
      <point x="590" y="107" type="curve" smooth="yes"/>
      <point x="603" y="107"/>
      <point x="610" y="95"/>
      <point x="620" y="83" type="curve" smooth="yes"/>
      <point x="647" y="48" type="line" smooth="yes"/>
      <point x="683" y="1"/>
      <point x="711" y="-15"/>
      <point x="755" y="-15" type="curve" smooth="yes"/>
      <point x="824" y="-15"/>
      <point x="874" y="74"/>
      <point x="810" y="136" type="curve" smooth="yes"/>
    </contour>
  </outline>
</glyph>
<glyph name="asterisk" format="2">
  <advance width="566"/>
  <unicode hex="002A"/>
  <outline>
    <contour>
      <point x="60" y="585"/>
      <point x="60" y="540" type="curve" smooth="yes"/>
      <point x="60" y="503"/>
      <point x="84" y="484"/>
      <point x="123" y="496" type="curve" smooth="yes"/>
      <point x="261" y="543" type="line" smooth="yes"/>
      <point x="268" y="545"/>
      <point x="274" y="540"/>
      <point x="271" y="532" type="curve" smooth="yes"/>
      <point x="201" y="371" type="line" smooth="yes"/>
      <point x="186" y="334"/>
      <point x="208" y="300"/>
      <point x="244" y="300" type="curve" smooth="yes"/>
      <point x="280" y="300"/>
      <point x="293" y="333"/>
      <point x="296" y="370" type="curve" smooth="yes"/>
      <point x="299" y="524" type="line" smooth="yes"/>
      <point x="300" y="534"/>
      <point x="308" y="534"/>
      <point x="313" y="530" type="curve" smooth="yes"/>
      <point x="412" y="452" type="line" smooth="yes"/>
      <point x="440" y="432"/>
      <point x="456" y="415"/>
      <point x="476" y="415" type="curve" smooth="yes"/>
      <point x="510" y="415"/>
      <point x="536" y="439"/>
      <point x="536" y="474" type="curve" smooth="yes"/>
      <point x="536" y="498"/>
      <point x="522" y="521"/>
      <point x="487" y="528" type="curve" smooth="yes"/>
      <point x="322" y="558" type="line" smooth="yes"/>
      <point x="317" y="558"/>
      <point x="315" y="561"/>
      <point x="315" y="565" type="curve" smooth="yes"/>
      <point x="315" y="567"/>
      <point x="316" y="569"/>
      <point x="318" y="571" type="curve" smooth="yes"/>
      <point x="460" y="679" type="line" smooth="yes"/>
      <point x="478" y="694"/>
      <point x="488" y="707"/>
      <point x="488" y="721" type="curve" smooth="yes"/>
      <point x="488" y="748"/>
      <point x="459" y="768"/>
      <point x="436" y="767" type="curve" smooth="yes"/>
      <point x="419" y="766"/>
      <point x="404" y="756"/>
      <point x="389" y="732" type="curve" smooth="yes"/>
      <point x="304" y="593" type="line" smooth="yes"/>
      <point x="302" y="589"/>
      <point x="300" y="588"/>
      <point x="297" y="588" type="curve" smooth="yes"/>
      <point x="294" y="588"/>
      <point x="290" y="590"/>
      <point x="289" y="594" type="curve" smooth="yes"/>
      <point x="271" y="705" type="line" smooth="yes"/>
      <point x="264" y="740"/>
      <point x="251" y="763"/>
      <point x="214" y="763" type="curve" smooth="yes"/>
      <point x="182" y="763"/>
      <point x="153" y="742"/>
      <point x="153" y="712" type="curve" smooth="yes"/>
      <point x="153" y="698"/>
      <point x="158" y="682"/>
      <point x="174" y="665" type="curve" smooth="yes"/>
      <point x="263" y="576" type="line" smooth="yes"/>
      <point x="268" y="571"/>
      <point x="263" y="560"/>
      <point x="254" y="563" type="curve" smooth="yes"/>
      <point x="147" y="589" type="line" smooth="yes"/>
      <point x="93" y="604"/>
    </contour>
  </outline>
</glyph>
<glyph name="hyphen" format="2">
  <advance width="446"/>
  <unicode hex="002D"/>
  <outline>
    <contour>
      <point x="64" y="343" type="curve" smooth="yes"/>
      <point x="333" y="336" type="line" smooth="yes"/>
      <point x="394" y="334"/>
      <point x="413" y="378"/>
      <point x="403" y="418" type="curve" smooth="yes"/>
      <point x="394" y="455"/>
      <point x="364" y="478"/>
      <point x="294" y="456" type="curve" smooth="yes"/>
      <point x="66" y="383" type="line" smooth="yes"/>
      <point x="31" y="372"/>
      <point x="38" y="344"/>
    </contour>
  </outline>
</glyph>
<glyph name="one" format="2">
  <advance width="453"/>
  <unicode hex="0031"/>
  <outline>
    <contour>
      <point x="374" y="149" type="curve" smooth="yes"/>
      <point x="371" y="660" type="line" smooth="yes"/>
      <point x="371" y="741"/>
      <point x="328" y="760"/>
      <point x="284" y="760" type="curve" smooth="yes"/>
      <point x="116" y="760" type="line" smooth="yes"/>
      <point x="42" y="760"/>
      <point x="7" y="710"/>
      <point x="10" y="653" type="curve" smooth="yes"/>
      <point x="14" y="565"/>
      <point x="124" y="533"/>
      <point x="187" y="609" type="curve" smooth="yes"/>
      <point x="259" y="696" type="line" smooth="yes"/>
      <point x="290" y="734"/>
      <point x="345" y="709"/>
      <point x="320" y="642" type="curve" smooth="yes"/>
      <point x="150" y="181" type="line" smooth="yes"/>
      <point x="114" y="83"/>
      <point x="139" y="-15"/>
      <point x="244" y="-15" type="curve" smooth="yes"/>
      <point x="336" y="-15"/>
      <point x="375" y="32"/>
    </contour>
  </outline>
</glyph>
<glyph name="three" format="2">
  <advance width="819"/>
  <unicode hex="0033"/>
  <anchor x="435" y="760" name="top"/>
  <outline>
    <contour>
      <point x="586" y="368" type="curve" smooth="yes"/>
      <point x="386" y="286" type="line" smooth="yes"/>
      <point x="340" y="267"/>
      <point x="320" y="304"/>
      <point x="360" y="332" type="curve" smooth="yes"/>
      <point x="658" y="539" type="line" smooth="yes"/>
      <point x="703" y="571"/>
      <point x="729" y="608"/>
      <point x="729" y="645" type="curve" smooth="yes"/>
      <point x="729" y="711"/>
      <point x="676" y="760"/>
      <point x="570" y="760" type="curve" smooth="yes"/>
      <point x="199" y="760" type="line" smooth="yes"/>
      <point x="116" y="760"/>
      <point x="51" y="729"/>
      <point x="56" y="649" type="curve" smooth="yes"/>
      <point x="64" y="514"/>
      <point x="198" y="560"/>
      <point x="269" y="581" type="curve" smooth="yes"/>
      <point x="618" y="684" type="line" smooth="yes"/>
      <point x="643" y="691"/>
      <point x="673" y="686"/>
      <point x="674" y="654" type="curve" smooth="yes"/>
      <point x="674" y="629"/>
      <point x="666" y="609"/>
      <point x="619" y="594" type="curve" smooth="yes"/>
      <point x="229" y="470" type="line" smooth="yes"/>
      <point x="141" y="442"/>
      <point x="127" y="395"/>
      <point x="127" y="358" type="curve" smooth="yes"/>
      <point x="127" y="310"/>
      <point x="153" y="264"/>
      <point x="229" y="255" type="curve" smooth="yes"/>
      <point x="587" y="211" type="line" smooth="yes"/>
      <point x="648" y="203"/>
      <point x="671" y="183"/>
      <point x="671" y="154" type="curve" smooth="yes"/>
      <point x="671" y="126"/>
      <point x="645" y="99"/>
      <point x="587" y="104" type="curve" smooth="yes"/>
      <point x="147" y="143" type="line" smooth="yes"/>
      <point x="72" y="150"/>
      <point x="55" y="120"/>
      <point x="55" y="88" type="curve" smooth="yes"/>
      <point x="55" y="25"/>
      <point x="116" y="-16"/>
      <point x="295" y="-16" type="curve" smooth="yes"/>
      <point x="551" y="-16"/>
      <point x="769" y="87"/>
      <point x="769" y="269" type="curve" smooth="yes"/>
      <point x="769" y="360"/>
      <point x="684" y="408"/>
    </contour>
  </outline>
</glyph>
<glyph name="five" format="2">
  <advance width="797"/>
  <unicode hex="0035"/>
  <outline>
    <contour>
      <point x="600" y="759" type="curve" smooth="yes"/>
      <point x="318" y="759" type="line" smooth="yes"/>
      <point x="137" y="759"/>
      <point x="99" y="721"/>
      <point x="97" y="632" type="curve" smooth="yes"/>
      <point x="92" y="431" type="line" smooth="yes"/>
      <point x="89" y="329"/>
      <point x="110" y="272"/>
      <point x="213" y="280" type="curve" smooth="yes"/>
      <point x="626" y="314" type="line" smooth="yes"/>
      <point x="675" y="318"/>
      <point x="683" y="277"/>
      <point x="655" y="252" type="curve" smooth="yes"/>
      <point x="433" y="58" type="line" smooth="yes"/>
      <point x="395" y="25"/>
      <point x="362" y="23"/>
      <point x="334" y="60" type="curve" smooth="yes"/>
      <point x="233" y="192" type="line" smooth="yes"/>
      <point x="195" y="242"/>
      <point x="118" y="247"/>
      <point x="88" y="170" type="curve" smooth="yes"/>
      <point x="44" y="57"/>
      <point x="163" y="-15"/>
      <point x="334" y="-15" type="curve" smooth="yes"/>
      <point x="571" y="-15"/>
      <point x="727" y="70"/>
      <point x="727" y="263" type="curve" smooth="yes"/>
      <point x="727" y="423"/>
      <point x="677" y="568"/>
      <point x="489" y="475" type="curve" smooth="yes"/>
      <point x="192" y="328" type="line" smooth="yes"/>
      <point x="165" y="315"/>
      <point x="138" y="341"/>
      <point x="154" y="371" type="curve" smooth="yes"/>
      <point x="301" y="638" type="line" smooth="yes"/>
      <point x="337" y="703"/>
      <point x="355" y="730"/>
      <point x="419" y="673" type="curve" smooth="yes"/>
      <point x="509" y="593" type="line" smooth="yes"/>
      <point x="613" y="500"/>
      <point x="715" y="570"/>
      <point x="715" y="649" type="curve" smooth="yes"/>
      <point x="715" y="710"/>
      <point x="688" y="759"/>
    </contour>
  </outline>
</glyph>
<glyph name="six" format="2">
  <advance width="856"/>
  <unicode hex="0036"/>
  <outline>
    <contour>
      <point x="145" y="400" type="line" smooth="yes"/>
      <point x="88" y="323"/>
      <point x="60" y="264"/>
      <point x="60" y="202" type="curve" smooth="yes"/>
      <point x="60" y="58"/>
      <point x="201" y="-15"/>
      <point x="431" y="-15" type="curve" smooth="yes"/>
      <point x="605" y="-15"/>
      <point x="806" y="59"/>
      <point x="806" y="260" type="curve" smooth="yes"/>
      <point x="806" y="365"/>
      <point x="759" y="462"/>
      <point x="616" y="462" type="curve" smooth="yes"/>
      <point x="494" y="462" type="line" smooth="yes"/>
      <point x="456" y="462"/>
      <point x="443" y="487"/>
      <point x="465" y="512" type="curve" smooth="yes"/>
      <point x="546" y="606" type="line" smooth="yes"/>
      <point x="569" y="632"/>
      <point x="587" y="666"/>
      <point x="587" y="691" type="curve" smooth="yes"/>
      <point x="587" y="741"/>
      <point x="539" y="776"/>
      <point x="482" y="776" type="curve" smooth="yes"/>
      <point x="448" y="776"/>
      <point x="409" y="758"/>
      <point x="378" y="716" type="curve" smooth="yes"/>
    </contour>
    <contour>
      <point x="168" y="149" type="line" smooth="yes"/>
      <point x="142" y="149"/>
      <point x="129" y="163"/>
      <point x="129" y="180" type="curve" smooth="yes"/>
      <point x="129" y="190"/>
      <point x="135" y="203"/>
      <point x="145" y="212" type="curve" smooth="yes"/>
      <point x="360" y="397" type="line" smooth="yes"/>
      <point x="404" y="435"/>
      <point x="435" y="437"/>
      <point x="492" y="394" type="curve" smooth="yes"/>
      <point x="724" y="220" type="line" smooth="yes"/>
      <point x="740" y="208"/>
      <point x="749" y="200"/>
      <point x="749" y="189" type="curve" smooth="yes"/>
      <point x="749" y="171"/>
      <point x="736" y="153"/>
      <point x="690" y="153" type="curve" smooth="yes"/>
    </contour>
  </outline>
</glyph>
<glyph name="seven" format="2">
  <advance width="719"/>
  <unicode hex="0037"/>
  <outline>
    <contour>
      <point x="306" y="390" type="line" smooth="yes"/>
      <point x="242" y="311"/>
      <point x="164" y="207"/>
      <point x="173" y="111" type="curve" smooth="yes"/>
      <point x="180" y="38"/>
      <point x="221" y="-15"/>
      <point x="296" y="-15" type="curve" smooth="yes"/>
      <point x="360" y="-15"/>
      <point x="427" y="36"/>
      <point x="390" y="143" type="curve" smooth="yes"/>
      <point x="340" y="287" type="line" smooth="yes"/>
      <point x="322" y="339"/>
      <point x="335" y="368"/>
      <point x="386" y="392" type="curve" smooth="yes"/>
      <point x="580" y="483" type="line" smooth="yes"/>
      <point x="676" y="528"/>
      <point x="719" y="588"/>
      <point x="719" y="649" type="curve" smooth="yes"/>
      <point x="719" y="744"/>
      <point x="606" y="760"/>
      <point x="527" y="760" type="curve" smooth="yes"/>
      <point x="180" y="760" type="line" smooth="yes"/>
      <point x="82" y="760"/>
      <point x="8" y="725"/>
      <point x="15" y="636" type="curve" smooth="yes"/>
      <point x="22" y="541"/>
      <point x="80" y="526"/>
      <point x="129" y="526" type="curve" smooth="yes"/>
      <point x="155" y="526"/>
      <point x="202" y="535"/>
      <point x="265" y="583" type="curve" smooth="yes"/>
      <point x="403" y="688" type="line" smooth="yes"/>
      <point x="446" y="721"/>
      <point x="478" y="714"/>
      <point x="496" y="700" type="curve" smooth="yes"/>
      <point x="518" y="682"/>
      <point x="515" y="647"/>
      <point x="473" y="596" type="curve" smooth="yes"/>
    </contour>
  </outline>
</glyph>
<glyph name="equal" format="2">
  <advance width="643"/>
  <unicode hex="003D"/>
  <outline>
    <contour>
      <point x="83" y="191" type="curve" smooth="yes"/>
      <point x="536" y="212" type="line" smooth="yes"/>
      <point x="597" y="215"/>
      <point x="612" y="261"/>
      <point x="599" y="300" type="curve" smooth="yes"/>
      <point x="587" y="336"/>
      <point x="559" y="345"/>
      <point x="487" y="328" type="curve" smooth="yes"/>
      <point x="81" y="232" type="line" smooth="yes"/>
      <point x="47" y="224"/>
      <point x="57" y="190"/>
    </contour>
    <contour>
      <point x="562" y="500" type="curve" smooth="yes"/>
      <point x="109" y="479" type="line" smooth="yes"/>
      <point x="48" y="476"/>
      <point x="33" y="430"/>
      <point x="46" y="391" type="curve" smooth="yes"/>
      <point x="58" y="355"/>
      <point x="86" y="346"/>
      <point x="158" y="363" type="curve" smooth="yes"/>
      <point x="564" y="459" type="line" smooth="yes"/>
      <point x="598" y="467"/>
      <point x="588" y="501"/>
    </contour>
  </outline>
</glyph>
<glyph name="at" format="2">
  <advance width="964"/>
  <unicode hex="0040"/>
  <outline>
    <contour>
      <point x="362" y="250" type="curve" smooth="yes"/>
      <point x="465" y="515" type="line" smooth="yes"/>
      <point x="473" y="537"/>
      <point x="479" y="545"/>
      <point x="493" y="545" type="curve" smooth="yes"/>
      <point x="505" y="545"/>
      <point x="511" y="538"/>
      <point x="517" y="521" type="curve" smooth="yes"/>
      <point x="602" y="273" type="line" smooth="yes"/>
      <point x="622" y="216"/>
      <point x="667" y="187"/>
      <point x="724" y="187" type="curve" smooth="yes"/>
      <point x="854" y="187"/>
      <point x="904" y="272"/>
      <point x="904" y="371" type="curve" smooth="yes"/>
      <point x="904" y="551"/>
      <point x="783" y="775"/>
      <point x="517" y="775" type="curve" smooth="yes"/>
      <point x="258" y="775"/>
      <point x="60" y="568"/>
      <point x="60" y="289" type="curve" smooth="yes"/>
      <point x="60" y="88"/>
      <point x="150" y="2"/>
      <point x="360" y="1" type="curve" smooth="yes"/>
      <point x="752" y="0" type="line" smooth="yes"/>
      <point x="809" y="0"/>
      <point x="840" y="37"/>
      <point x="840" y="79" type="curve" smooth="yes"/>
      <point x="840" y="138"/>
      <point x="789" y="167"/>
      <point x="722" y="157" type="curve" smooth="yes"/>
      <point x="251" y="88" type="line" smooth="yes"/>
      <point x="191" y="79"/>
      <point x="156" y="104"/>
      <point x="174" y="169" type="curve" smooth="yes"/>
      <point x="295" y="612" type="line" smooth="yes"/>
      <point x="328" y="733"/>
      <point x="451" y="723"/>
      <point x="517" y="661" type="curve" smooth="yes"/>
      <point x="817" y="380" type="line" smooth="yes"/>
      <point x="876" y="324"/>
      <point x="834" y="263"/>
      <point x="797" y="263" type="curve" smooth="yes"/>
      <point x="761" y="263"/>
      <point x="732" y="286"/>
      <point x="695" y="343" type="curve" smooth="yes"/>
      <point x="571" y="535" type="line" smooth="yes"/>
      <point x="547" y="572"/>
      <point x="530" y="592"/>
      <point x="492" y="592" type="curve" smooth="yes"/>
      <point x="460" y="592"/>
      <point x="441" y="574"/>
      <point x="417" y="535" type="curve" smooth="yes"/>
      <point x="284" y="315" type="line" smooth="yes"/>
      <point x="243" y="247"/>
      <point x="293" y="174"/>
      <point x="366" y="203" type="curve" smooth="yes"/>
      <point x="486" y="250" type="line" smooth="yes"/>
      <point x="525" y="265"/>
      <point x="555" y="286"/>
      <point x="555" y="324" type="curve" smooth="yes"/>
      <point x="555" y="384"/>
      <point x="482" y="403"/>
      <point x="445" y="343" type="curve" smooth="yes"/>
      <point x="380" y="238" type="line" smooth="yes"/>
      <point x="374" y="229"/>
      <point x="355" y="233"/>
    </contour>
  </outline>
</glyph>
<glyph name="A" format="2">
  <advance width="800"/>
  <unicode hex="0041"/>
  <unicode hex="0061"/>
  <anchor x="633" y="0" name="right"/>
  <anchor x="528" y="760" name="top"/>
  <outline>
    <contour>
      <point x="448" y="233" type="curve" smooth="yes"/>
      <point x="190" y="227" type="line" smooth="yes"/>
      <point x="102" y="225"/>
      <point x="30" y="192"/>
      <point x="30" y="112" type="curve" smooth="yes"/>
      <point x="30" y="18"/>
      <point x="95" y="-15"/>
      <point x="153" y="-15" type="curve" smooth="yes"/>
      <point x="235" y="-15"/>
      <point x="309" y="59"/>
      <point x="355" y="98" type="curve" smooth="yes"/>
      <point x="453" y="182" type="line" smooth="yes"/>
      <point x="488" y="212"/>
      <point x="517" y="205"/>
      <point x="517" y="150" type="curve" smooth="yes"/>
      <point x="517" y="98" type="line" smooth="yes"/>
      <point x="517" y="37"/>
      <point x="556" y="-15"/>
      <point x="638" y="-15" type="curve" smooth="yes"/>
      <point x="741" y="-15"/>
      <point x="775" y="71"/>
      <point x="754" y="183" type="curve" smooth="yes"/>
      <point x="663" y="664" type="line" smooth="yes"/>
      <point x="650" y="732"/>
      <point x="609" y="775"/>
      <point x="549" y="775" type="curve" smooth="yes"/>
      <point x="484" y="775"/>
      <point x="448" y="749"/>
      <point x="361" y="680" type="curve" smooth="yes"/>
      <point x="160" y="520" type="line" smooth="yes"/>
      <point x="114" y="483"/>
      <point x="84" y="444"/>
      <point x="84" y="401" type="curve" smooth="yes"/>
      <point x="84" y="339"/>
      <point x="132" y="290"/>
      <point x="191" y="290" type="curve" smooth="yes"/>
      <point x="228" y="290"/>
      <point x="284" y="303"/>
      <point x="316" y="369" type="curve" smooth="yes"/>
      <point x="437" y="617" type="line" smooth="yes"/>
      <point x="452" y="648"/>
      <point x="488" y="724"/>
      <point x="530" y="732" type="curve" smooth="yes"/>
      <point x="572" y="740"/>
      <point x="599" y="705"/>
      <point x="592" y="650" type="curve" smooth="yes"/>
      <point x="549" y="296" type="line" smooth="yes"/>
      <point x="543" y="245"/>
      <point x="505" y="234"/>
    </contour>
  </outline>
</glyph>
<glyph name="E" format="2">
  <advance width="819"/>
  <unicode hex="0045"/>
  <unicode hex="0065"/>
  <anchor x="614" y="0" name="right"/>
  <anchor x="434" y="760" name="top"/>
  <outline>
    <contour>
      <point x="672" y="143" type="curve" smooth="yes"/>
      <point x="232" y="104" type="line" smooth="yes"/>
      <point x="174" y="99"/>
      <point x="148" y="126"/>
      <point x="148" y="154" type="curve" smooth="yes"/>
      <point x="148" y="183"/>
      <point x="171" y="203"/>
      <point x="232" y="211" type="curve" smooth="yes"/>
      <point x="590" y="255" type="line" smooth="yes"/>
      <point x="666" y="264"/>
      <point x="692" y="310"/>
      <point x="692" y="358" type="curve" smooth="yes"/>
      <point x="692" y="395"/>
      <point x="678" y="442"/>
      <point x="590" y="470" type="curve" smooth="yes"/>
      <point x="200" y="594" type="line" smooth="yes"/>
      <point x="153" y="609"/>
      <point x="145" y="629"/>
      <point x="145" y="654" type="curve" smooth="yes"/>
      <point x="145" y="676"/>
      <point x="172" y="717"/>
      <point x="221" y="700" type="curve" smooth="yes"/>
      <point x="630" y="557" type="line" smooth="yes"/>
      <point x="716" y="527"/>
      <point x="761" y="551"/>
      <point x="764" y="611" type="curve" smooth="yes"/>
      <point x="767" y="668"/>
      <point x="739" y="700"/>
      <point x="686" y="725" type="curve" smooth="yes"/>
      <point x="628" y="752"/>
      <point x="478" y="775"/>
      <point x="344" y="774" type="curve" smooth="yes"/>
      <point x="211" y="774"/>
      <point x="91" y="744"/>
      <point x="91" y="644" type="curve" smooth="yes"/>
      <point x="91" y="607"/>
      <point x="116" y="571"/>
      <point x="161" y="539" type="curve" smooth="yes"/>
      <point x="459" y="332" type="line" smooth="yes"/>
      <point x="499" y="304"/>
      <point x="479" y="267"/>
      <point x="433" y="286" type="curve" smooth="yes"/>
      <point x="233" y="368" type="line" smooth="yes"/>
      <point x="135" y="408"/>
      <point x="50" y="360"/>
      <point x="50" y="269" type="curve" smooth="yes"/>
      <point x="50" y="87"/>
      <point x="268" y="-16"/>
      <point x="524" y="-16" type="curve" smooth="yes"/>
      <point x="703" y="-16"/>
      <point x="764" y="25"/>
      <point x="764" y="88" type="curve" smooth="yes"/>
      <point x="764" y="120"/>
      <point x="747" y="150"/>
    </contour>
  </outline>
</glyph>
<glyph name="G" format="2">
  <advance width="895"/>
  <unicode hex="0047"/>
  <unicode hex="0067"/>
  <anchor x="497" y="0" name="bottom"/>
  <anchor x="451" y="760" name="top"/>
  <outline>
    <contour>
      <point x="321" y="569" type="line" smooth="yes"/>
      <point x="284" y="615"/>
      <point x="280" y="691"/>
      <point x="350" y="721" type="curve" smooth="yes"/>
      <point x="410" y="747"/>
      <point x="475" y="726"/>
      <point x="508" y="683" type="curve" smooth="yes"/>
      <point x="619" y="537" type="line" smooth="yes"/>
      <point x="682" y="454"/>
      <point x="819" y="513"/>
      <point x="791" y="607" type="curve" smooth="yes"/>
      <point x="760" y="713"/>
      <point x="634" y="775"/>
      <point x="444" y="775" type="curve" smooth="yes"/>
      <point x="217" y="775"/>
      <point x="60" y="626"/>
      <point x="60" y="366" type="curve" smooth="yes"/>
      <point x="60" y="113"/>
      <point x="170" y="-15"/>
      <point x="288" y="-15" type="curve" smooth="yes"/>
      <point x="378" y="-15"/>
      <point x="420" y="18"/>
      <point x="497" y="119" type="curve" smooth="yes"/>
      <point x="661" y="333" type="line" smooth="yes"/>
      <point x="697" y="381"/>
      <point x="712" y="383"/>
      <point x="731" y="383" type="curve" smooth="yes"/>
      <point x="753" y="383"/>
      <point x="778" y="360"/>
      <point x="757" y="328" type="curve" smooth="yes"/>
      <point x="650" y="163" type="line" smooth="yes"/>
      <point x="584" y="62"/>
      <point x="643" y="-15"/>
      <point x="717" y="-15" type="curve" smooth="yes"/>
      <point x="791" y="-15"/>
      <point x="840" y="28"/>
      <point x="835" y="136" type="curve" smooth="yes"/>
      <point x="825" y="346" type="line" smooth="yes"/>
      <point x="821" y="428"/>
      <point x="749" y="462"/>
      <point x="653" y="405" type="curve" smooth="yes"/>
      <point x="230" y="153" type="line" smooth="yes"/>
      <point x="153" y="107"/>
      <point x="87" y="229"/>
      <point x="162" y="280" type="curve" smooth="yes"/>
      <point x="323" y="390" type="line" smooth="yes"/>
      <point x="384" y="431"/>
      <point x="388" y="484"/>
      <point x="350" y="532" type="curve" smooth="yes"/>
    </contour>
  </outline>
</glyph>
<glyph name="J" format="2">
  <advance width="526"/>
  <unicode hex="004A"/>
  <unicode hex="006A"/>
  <outline>
    <contour>
      <point x="394" y="178" type="curve" smooth="yes"/>
      <point x="127" y="125" type="line" smooth="yes"/>
      <point x="88" y="117"/>
      <point x="60" y="157"/>
      <point x="98" y="198" type="curve" smooth="yes"/>
      <point x="231" y="337" type="line" smooth="yes"/>
      <point x="276" y="384"/>
      <point x="243" y="445"/>
      <point x="180" y="445" type="curve" smooth="yes"/>
      <point x="110" y="445"/>
      <point x="30" y="327"/>
      <point x="30" y="195" type="curve" smooth="yes"/>
      <point x="30" y="91"/>
      <point x="131" y="-15"/>
      <point x="284" y="-15" type="curve" smooth="yes"/>
      <point x="438" y="-15"/>
      <point x="466" y="72"/>
      <point x="466" y="249" type="curve" smooth="yes"/>
      <point x="466" y="627" type="line" smooth="yes"/>
      <point x="466" y="741"/>
      <point x="401" y="776"/>
      <point x="345" y="776" type="curve" smooth="yes"/>
      <point x="261" y="776"/>
      <point x="235" y="711"/>
      <point x="235" y="660" type="curve" smooth="yes"/>
      <point x="235" y="617"/>
      <point x="258" y="554"/>
      <point x="281" y="515" type="curve" smooth="yes"/>
      <point x="417" y="282" type="line" smooth="yes"/>
      <point x="449" y="227"/>
      <point x="435" y="186"/>
    </contour>
  </outline>
</glyph>
<glyph name="K" format="2">
  <advance width="862"/>
  <unicode hex="004B"/>
  <unicode hex="006B"/>
  <anchor x="403" y="0" name="bottom"/>
  <outline>
    <contour>
      <point x="216" y="775" type="curve" smooth="yes"/>
      <point x="159" y="775"/>
      <point x="102" y="741"/>
      <point x="95" y="646" type="curve" smooth="yes"/>
      <point x="60" y="123" type="line" smooth="yes"/>
      <point x="55" y="36"/>
      <point x="91" y="-15"/>
      <point x="163" y="-15" type="curve" smooth="yes"/>
      <point x="234" y="-15"/>
      <point x="280" y="28"/>
      <point x="289" y="78" type="curve" smooth="yes"/>
      <point x="297" y="126"/>
      <point x="284" y="159"/>
      <point x="264" y="189" type="curve" smooth="yes"/>
      <point x="139" y="380" type="line" smooth="yes"/>
      <point x="108" y="428"/>
      <point x="159" y="468"/>
      <point x="199" y="421" type="curve" smooth="yes"/>
      <point x="473" y="95" type="line" smooth="yes"/>
      <point x="531" y="26"/>
      <point x="556" y="-15"/>
      <point x="622" y="-15" type="curve" smooth="yes"/>
      <point x="682" y="-15"/>
      <point x="738" y="18"/>
      <point x="750" y="103" type="curve" smooth="yes"/>
      <point x="786" y="353" type="line" smooth="yes"/>
      <point x="794" y="409"/>
      <point x="756" y="434"/>
      <point x="722" y="433" type="curve" smooth="yes"/>
      <point x="691" y="431"/>
      <point x="663" y="406"/>
      <point x="677" y="360" type="curve" smooth="yes"/>
      <point x="714" y="239" type="line" smooth="yes"/>
      <point x="723" y="210"/>
      <point x="695" y="179"/>
      <point x="666" y="193" type="curve" smooth="yes"/>
      <point x="318" y="360" type="line" smooth="yes"/>
      <point x="284" y="376"/>
      <point x="276" y="399"/>
      <point x="280" y="421" type="curve" smooth="yes"/>
      <point x="285" y="451"/>
      <point x="338" y="457"/>
      <point x="377" y="465" type="curve" smooth="yes"/>
      <point x="690" y="533" type="line" smooth="yes"/>
      <point x="781" y="553"/>
      <point x="823" y="581"/>
      <point x="835" y="651" type="curve" smooth="yes"/>
      <point x="845" y="711"/>
      <point x="804" y="775"/>
      <point x="748" y="775" type="curve" smooth="yes"/>
      <point x="686" y="775"/>
      <point x="643" y="749"/>
      <point x="578" y="700" type="curve" smooth="yes"/>
      <point x="317" y="502" type="line" smooth="yes"/>
      <point x="267" y="464"/>
      <point x="232" y="444"/>
      <point x="206" y="485" type="curve" smooth="yes"/>
      <point x="192" y="507"/>
      <point x="207" y="541"/>
      <point x="234" y="574" type="curve" smooth="yes"/>
      <point x="250" y="593" type="line" smooth="yes"/>
      <point x="315" y="670"/>
      <point x="318" y="775"/>
    </contour>
  </outline>
</glyph>
<glyph name="L" format="2">
  <advance width="590"/>
  <unicode hex="004C"/>
  <unicode hex="006C"/>
  <anchor x="288" y="0" name="bottom"/>
  <anchor x="161" y="396" name="center"/>
  <outline>
    <contour>
      <point x="123" y="617" type="curve" smooth="yes"/>
      <point x="64" y="194" type="line" smooth="yes"/>
      <point x="61" y="174"/>
      <point x="60" y="156"/>
      <point x="60" y="140" type="curve" smooth="yes"/>
      <point x="60" y="37"/>
      <point x="89" y="0"/>
      <point x="198" y="0" type="curve" smooth="yes"/>
      <point x="397" y="0" type="line" smooth="yes"/>
      <point x="502" y="0"/>
      <point x="545" y="57"/>
      <point x="545" y="114" type="curve" smooth="yes"/>
      <point x="545" y="171"/>
      <point x="501" y="228"/>
      <point x="435" y="228" type="curve" smooth="yes"/>
      <point x="405" y="228"/>
      <point x="370" y="216"/>
      <point x="332" y="187" type="curve" smooth="yes"/>
      <point x="240" y="116" type="line" smooth="yes"/>
      <point x="189" y="77"/>
      <point x="160" y="55"/>
      <point x="139" y="55" type="curve" smooth="yes"/>
      <point x="122" y="55"/>
      <point x="100" y="72"/>
      <point x="100" y="98" type="curve" smooth="yes"/>
      <point x="100" y="118"/>
      <point x="112" y="145"/>
      <point x="129" y="176" type="curve" smooth="yes"/>
      <point x="340" y="568" type="line" smooth="yes"/>
      <point x="359" y="604"/>
      <point x="367" y="635"/>
      <point x="367" y="661" type="curve" smooth="yes"/>
      <point x="367" y="737"/>
      <point x="303" y="775"/>
      <point x="246" y="775" type="curve" smooth="yes"/>
      <point x="178" y="775"/>
      <point x="138" y="724"/>
    </contour>
  </outline>
</glyph>
<glyph name="M" format="2">
  <advance width="1136"/>
  <unicode hex="004D"/>
  <unicode hex="006D"/>
  <outline>
    <contour>
      <point x="688" y="295" type="line" smooth="yes"/>
      <point x="699" y="222"/>
      <point x="684" y="190"/>
      <point x="652" y="190" type="curve" smooth="yes"/>
      <point x="633" y="190"/>
      <point x="613" y="202"/>
      <point x="598" y="239" type="curve" smooth="yes"/>
      <point x="436" y="632" type="line" smooth="yes"/>
      <point x="393" y="736"/>
      <point x="327" y="776"/>
      <point x="248" y="776" type="curve" smooth="yes"/>
      <point x="132" y="776"/>
      <point x="65" y="698"/>
      <point x="65" y="473" type="curve" smooth="yes"/>
      <point x="65" y="262" type="line" smooth="yes"/>
      <point x="65" y="117"/>
      <point x="81" y="-15"/>
      <point x="212" y="-15" type="curve" smooth="yes"/>
      <point x="320" y="-15"/>
      <point x="341" y="87"/>
      <point x="299" y="190" type="curve" smooth="yes"/>
      <point x="161" y="529" type="line" smooth="yes"/>
      <point x="152" y="551"/>
      <point x="139" y="596"/>
      <point x="139" y="624" type="curve" smooth="yes"/>
      <point x="139" y="681"/>
      <point x="172" y="723"/>
      <point x="228" y="723" type="curve" smooth="yes"/>
      <point x="274" y="723"/>
      <point x="315" y="697"/>
      <point x="307" y="646" type="curve" smooth="yes"/>
      <point x="298" y="589" type="line" smooth="yes"/>
      <point x="285" y="506"/>
      <point x="306" y="416"/>
      <point x="336" y="356" type="curve" smooth="yes"/>
      <point x="452" y="126" type="line" smooth="yes"/>
      <point x="506" y="18"/>
      <point x="543" y="-15"/>
      <point x="589" y="-15" type="curve" smooth="yes"/>
      <point x="656" y="-15"/>
      <point x="688" y="46"/>
      <point x="718" y="146" type="curve" smooth="yes"/>
      <point x="876" y="668" type="line" smooth="yes"/>
      <point x="903" y="757"/>
      <point x="1009" y="728"/>
      <point x="986" y="645" type="curve" smooth="yes"/>
      <point x="873" y="246" type="line" smooth="yes"/>
      <point x="862" y="207"/>
      <point x="840" y="144"/>
      <point x="840" y="101" type="curve" smooth="yes"/>
      <point x="840" y="50"/>
      <point x="866" y="-15"/>
      <point x="950" y="-15" type="curve" smooth="yes"/>
      <point x="1006" y="-15"/>
      <point x="1072" y="20"/>
      <point x="1071" y="134" type="curve" smooth="yes"/>
      <point x="1069" y="467" type="line" smooth="yes"/>
      <point x="1068" y="709"/>
      <point x="1017" y="775"/>
      <point x="891" y="775" type="curve" smooth="yes"/>
      <point x="733" y="775"/>
      <point x="635" y="659"/>
      <point x="662" y="473" type="curve" smooth="yes"/>
    </contour>
  </outline>
</glyph>
<glyph name="N" format="2">
  <advance width="882"/>
  <unicode hex="004E"/>
  <unicode hex="006E"/>
  <anchor x="403" y="0" name="bottom"/>
  <anchor x="436" y="760" name="top"/>
  <outline>
    <contour>
      <point x="194" y="-15" type="curve" smooth="yes"/>
      <point x="302" y="-15"/>
      <point x="322" y="79"/>
      <point x="277" y="190" type="curve" smooth="yes"/>
      <point x="141" y="523" type="line" smooth="yes"/>
      <point x="132" y="545"/>
      <point x="123" y="590"/>
      <point x="123" y="618" type="curve" smooth="yes"/>
      <point x="123" y="675"/>
      <point x="156" y="717"/>
      <point x="212" y="717" type="curve" smooth="yes"/>
      <point x="248" y="717"/>
      <point x="279" y="691"/>
      <point x="271" y="640" type="curve" smooth="yes"/>
      <point x="262" y="583" type="line" smooth="yes"/>
      <point x="249" y="500"/>
      <point x="291" y="411"/>
      <point x="331" y="356" type="curve" smooth="yes"/>
      <point x="497" y="126" type="line" smooth="yes"/>
      <point x="568" y="28"/>
      <point x="599" y="-15"/>
      <point x="660" y="-15" type="curve" smooth="yes"/>
      <point x="725" y="-15"/>
      <point x="758" y="29"/>
      <point x="769" y="125" type="curve" smooth="yes"/>
      <point x="820" y="588" type="line" smooth="yes"/>
      <point x="830" y="680"/>
      <point x="800" y="776"/>
      <point x="701" y="776" type="curve" smooth="yes"/>
      <point x="617" y="776"/>
      <point x="591" y="711"/>
      <point x="591" y="660" type="curve" smooth="yes"/>
      <point x="591" y="636"/>
      <point x="589" y="604"/>
      <point x="614" y="540" type="curve" smooth="yes"/>
      <point x="706" y="303" type="line" smooth="yes"/>
      <point x="719" y="270"/>
      <point x="727" y="247"/>
      <point x="727" y="229" type="curve" smooth="yes"/>
      <point x="727" y="207"/>
      <point x="715" y="196"/>
      <point x="690" y="196" type="curve" smooth="yes"/>
      <point x="672" y="196"/>
      <point x="658" y="210"/>
      <point x="634" y="248" type="curve" smooth="yes"/>
      <point x="397" y="619" type="line" smooth="yes"/>
      <point x="337" y="713"/>
      <point x="293" y="775"/>
      <point x="214" y="775" type="curve" smooth="yes"/>
      <point x="107" y="775"/>
      <point x="60" y="725"/>
      <point x="60" y="500" type="curve" smooth="yes"/>
      <point x="60" y="230" type="line" smooth="yes"/>
      <point x="60" y="85"/>
      <point x="63" y="-15"/>
    </contour>
  </outline>
</glyph>
<glyph name="P" format="2">
  <advance width="806"/>
  <unicode hex="0050"/>
  <unicode hex="0070"/>
  <outline>
    <contour>
      <point x="256" y="760" type="line" smooth="yes"/>
      <point x="126" y="760"/>
      <point x="65" y="677"/>
      <point x="65" y="565" type="curve" smooth="yes"/>
      <point x="65" y="134" type="line" smooth="yes"/>
      <point x="65" y="8"/>
      <point x="128" y="-15"/>
      <point x="197" y="-15" type="curve" smooth="yes"/>
      <point x="274" y="-15"/>
      <point x="317" y="15"/>
      <point x="317" y="85" type="curve" smooth="yes"/>
      <point x="317" y="134"/>
      <point x="300" y="172"/>
      <point x="259" y="219" type="curve" smooth="yes"/>
      <point x="136" y="357" type="line" smooth="yes"/>
      <point x="110" y="386"/>
      <point x="105" y="430"/>
      <point x="132" y="460" type="curve" smooth="yes"/>
      <point x="163" y="494"/>
      <point x="210" y="492"/>
      <point x="235" y="460" type="curve" smooth="yes"/>
      <point x="350" y="309" type="line" smooth="yes"/>
      <point x="417" y="221"/>
      <point x="476" y="186"/>
      <point x="562" y="186" type="curve" smooth="yes"/>
      <point x="713" y="186"/>
      <point x="776" y="299"/>
      <point x="776" y="449" type="curve" smooth="yes"/>
      <point x="776" y="652"/>
      <point x="679" y="760"/>
      <point x="460" y="760" type="curve" smooth="yes"/>
    </contour>
    <contour>
      <point x="212" y="553" type="curve" smooth="yes"/>
      <point x="212" y="574"/>
      <point x="228" y="584"/>
      <point x="254" y="595" type="curve" smooth="yes"/>
      <point x="439" y="671" type="line" smooth="yes"/>
      <point x="493" y="693"/>
      <point x="511" y="688"/>
      <point x="547" y="637" type="curve" smooth="yes"/>
      <point x="699" y="419" type="line" smooth="yes"/>
      <point x="751" y="345"/>
      <point x="695" y="281"/>
      <point x="594" y="332" type="curve" smooth="yes"/>
      <point x="247" y="508" type="line" smooth="yes"/>
      <point x="222" y="521"/>
      <point x="212" y="536"/>
    </contour>
  </outline>
</glyph>
<glyph name="Q" format="2">
  <advance width="944"/>
  <unicode hex="0051"/>
  <unicode hex="0071"/>
  <outline>
    <contour>
      <point x="787" y="14" type="curve" smooth="yes"/>
      <point x="528" y="66" type="line" smooth="yes"/>
      <point x="492" y="73"/>
      <point x="479" y="86"/>
      <point x="481" y="110" type="curve" smooth="yes"/>
      <point x="483" y="132"/>
      <point x="498" y="145"/>
      <point x="535" y="141" type="curve" smooth="yes"/>
      <point x="674" y="126" type="line" smooth="yes"/>
      <point x="812" y="111"/>
      <point x="878" y="151"/>
      <point x="878" y="292" type="curve" smooth="yes"/>
      <point x="878" y="554"/>
      <point x="736" y="775"/>
      <point x="503" y="775" type="curve" smooth="yes"/>
      <point x="212" y="775"/>
      <point x="84" y="462"/>
      <point x="63" y="264" type="curve" smooth="yes"/>
      <point x="47" y="113"/>
      <point x="106" y="-15"/>
      <point x="233" y="-15" type="curve" smooth="yes"/>
      <point x="320" y="-15"/>
      <point x="359" y="67"/>
      <point x="399" y="67" type="curve" smooth="yes"/>
      <point x="412" y="67"/>
      <point x="419" y="65"/>
      <point x="427" y="57" type="curve" smooth="yes"/>
      <point x="645" y="-143" type="line" smooth="yes"/>
      <point x="679" y="-174"/>
      <point x="725" y="-200"/>
      <point x="767" y="-200" type="curve" smooth="yes"/>
      <point x="840" y="-200"/>
      <point x="877" y="-151"/>
      <point x="877" y="-102" type="curve" smooth="yes"/>
      <point x="877" y="-49"/>
      <point x="855" y="0"/>
    </contour>
    <contour>
      <point x="264" y="166" type="curve" smooth="yes"/>
      <point x="245" y="505" type="line" smooth="yes"/>
      <point x="240" y="599"/>
      <point x="278" y="649"/>
      <point x="387" y="620" type="curve" smooth="yes"/>
      <point x="723" y="530" type="line" smooth="yes"/>
      <point x="759" y="520"/>
      <point x="784" y="492"/>
      <point x="784" y="451" type="curve" smooth="yes"/>
      <point x="784" y="423"/>
      <point x="761" y="387"/>
      <point x="722" y="358" type="curve" smooth="yes"/>
      <point x="413" y="130" type="line" smooth="yes"/>
      <point x="371" y="99"/>
      <point x="350" y="90"/>
      <point x="322" y="93" type="curve" smooth="yes"/>
      <point x="290" y="96"/>
      <point x="266" y="124"/>
    </contour>
  </outline>
</glyph>
<glyph name="S" format="2">
  <advance width="834"/>
  <unicode hex="0053"/>
  <unicode hex="0073"/>
  <anchor x="403" y="0" name="bottom"/>
  <anchor x="423" y="760" name="top"/>
  <outline>
    <contour>
      <point x="364" y="-14" type="curve" smooth="yes"/>
      <point x="593" y="-14"/>
      <point x="774" y="126"/>
      <point x="774" y="265" type="curve" smooth="yes"/>
      <point x="774" y="313"/>
      <point x="746" y="353"/>
      <point x="689" y="363" type="curve" smooth="yes"/>
      <point x="180" y="455" type="line" smooth="yes"/>
      <point x="148" y="461"/>
      <point x="135" y="470"/>
      <point x="132" y="492" type="curve" smooth="yes"/>
      <point x="129" y="513"/>
      <point x="139" y="532"/>
      <point x="182" y="541" type="curve" smooth="yes"/>
      <point x="613" y="634" type="line" smooth="yes"/>
      <point x="646" y="641"/>
      <point x="667" y="642"/>
      <point x="683" y="631" type="curve" smooth="yes"/>
      <point x="693" y="624"/>
      <point x="696" y="606"/>
      <point x="684" y="588" type="curve" smooth="yes"/>
      <point x="640" y="522" type="line" smooth="yes"/>
      <point x="586" y="441"/>
      <point x="645" y="403"/>
      <point x="684" y="403" type="curve" smooth="yes"/>
      <point x="743" y="403"/>
      <point x="770" y="452"/>
      <point x="770" y="523" type="curve" smooth="yes"/>
      <point x="770" y="703"/>
      <point x="599" y="777"/>
      <point x="426" y="777" type="curve" smooth="yes"/>
      <point x="250" y="777"/>
      <point x="72" y="682"/>
      <point x="72" y="508" type="curve" smooth="yes"/>
      <point x="72" y="467"/>
      <point x="99" y="427"/>
      <point x="140" y="417" type="curve" smooth="yes"/>
      <point x="203" y="402" type="line" smooth="yes"/>
      <point x="243" y="393"/>
      <point x="259" y="388"/>
      <point x="260" y="351" type="curve" smooth="yes"/>
      <point x="261" y="313" type="line" smooth="yes"/>
      <point x="263" y="241"/>
      <point x="328" y="177"/>
      <point x="423" y="221" type="curve" smooth="yes"/>
      <point x="635" y="319" type="line" smooth="yes"/>
      <point x="669" y="335"/>
      <point x="700" y="330"/>
      <point x="710" y="293" type="curve" smooth="yes"/>
      <point x="720" y="256"/>
      <point x="684" y="240"/>
      <point x="642" y="220" type="curve" smooth="yes"/>
      <point x="292" y="51" type="line" smooth="yes"/>
      <point x="232" y="22"/>
      <point x="202" y="47"/>
      <point x="202" y="95" type="curve" smooth="yes"/>
      <point x="202" y="265" type="line" smooth="yes"/>
      <point x="202" y="307"/>
      <point x="172" y="348"/>
      <point x="124" y="348" type="curve" smooth="yes"/>
      <point x="64" y="348"/>
      <point x="42" y="284"/>
      <point x="42" y="229" type="curve" smooth="yes"/>
      <point x="42" y="113"/>
      <point x="124" y="-14"/>
    </contour>
  </outline>
</glyph>
<glyph name="T" format="2">
  <advance width="765"/>
  <unicode hex="0054"/>
  <unicode hex="0074"/>
  <anchor x="463" y="0" name="bottom"/>
  <anchor x="407" y="331" name="center"/>
  <anchor x="348" y="760" name="top"/>
  <outline>
    <contour>
      <point x="381" y="639" type="line" smooth="yes"/>
      <point x="361" y="696"/>
      <point x="371" y="719"/>
      <point x="398" y="719" type="curve" smooth="yes"/>
      <point x="407" y="719"/>
      <point x="418" y="714"/>
      <point x="428" y="703" type="curve" smooth="yes"/>
      <point x="540" y="578" type="line" smooth="yes"/>
      <point x="632" y="476"/>
      <point x="780" y="534"/>
      <point x="780" y="649" type="curve" smooth="yes"/>
      <point x="780" y="700"/>
      <point x="747" y="760"/>
      <point x="643" y="760" type="curve" smooth="yes"/>
      <point x="301" y="760" type="line" smooth="yes"/>
      <point x="120" y="760"/>
      <point x="10" y="660"/>
      <point x="10" y="521" type="curve" smooth="yes"/>
      <point x="10" y="459"/>
      <point x="58" y="404"/>
      <point x="122" y="402" type="curve" smooth="yes"/>
      <point x="213" y="399"/>
      <point x="242" y="465"/>
      <point x="242" y="603" type="curve" smooth="yes"/>
      <point x="242" y="647" type="line" smooth="yes"/>
      <point x="242" y="691"/>
      <point x="252" y="724"/>
      <point x="286" y="724" type="curve" smooth="yes"/>
      <point x="313" y="724"/>
      <point x="324" y="698"/>
      <point x="325" y="635" type="curve" smooth="yes"/>
      <point x="336" y="146" type="line" smooth="yes"/>
      <point x="338" y="40"/>
      <point x="358" y="-15"/>
      <point x="454" y="-15" type="curve" smooth="yes"/>
      <point x="561" y="-15"/>
      <point x="583" y="62"/>
      <point x="542" y="171" type="curve" smooth="yes"/>
    </contour>
  </outline>
</glyph>
<glyph name="U" format="2">
  <advance width="792"/>
  <unicode hex="0055"/>
  <unicode hex="0075"/>
  <anchor x="465" y="0" name="right"/>
  <anchor x="394" y="760" name="top"/>
  <outline>
    <contour>
      <point x="607" y="232" type="line" smooth="yes"/>
      <point x="630" y="208"/>
      <point x="654" y="162"/>
      <point x="624" y="120" type="curve" smooth="yes"/>
      <point x="594" y="78"/>
      <point x="541" y="72"/>
      <point x="455" y="116" type="curve" smooth="yes"/>
      <point x="171" y="262" type="line" smooth="yes"/>
      <point x="112" y="292"/>
      <point x="98" y="346"/>
      <point x="139" y="407" type="curve" smooth="yes"/>
      <point x="262" y="589" type="line" smooth="yes"/>
      <point x="310" y="660"/>
      <point x="284" y="775"/>
      <point x="177" y="775" type="curve" smooth="yes"/>
      <point x="101" y="775"/>
      <point x="60" y="730"/>
      <point x="60" y="619" type="curve" smooth="yes"/>
      <point x="60" y="295" type="line" smooth="yes"/>
      <point x="60" y="105"/>
      <point x="198" y="-15"/>
      <point x="400" y="-15" type="curve" smooth="yes"/>
      <point x="617" y="-15"/>
      <point x="732" y="75"/>
      <point x="732" y="268" type="curve" smooth="yes"/>
      <point x="732" y="643" type="line" smooth="yes"/>
      <point x="732" y="730"/>
      <point x="704" y="775"/>
      <point x="632" y="775" type="curve" smooth="yes"/>
      <point x="575" y="775"/>
      <point x="541" y="739"/>
      <point x="541" y="691" type="curve" smooth="yes"/>
      <point x="541" y="654"/>
      <point x="563" y="628"/>
      <point x="607" y="577" type="curve" smooth="yes"/>
      <point x="665" y="510" type="line" smooth="yes"/>
      <point x="685" y="487"/>
      <point x="678" y="470"/>
      <point x="667" y="459" type="curve" smooth="yes"/>
      <point x="659" y="451"/>
      <point x="641" y="444"/>
      <point x="620" y="461" type="curve" smooth="yes"/>
      <point x="504" y="555" type="line" smooth="yes"/>
      <point x="405" y="635"/>
      <point x="323" y="540"/>
      <point x="403" y="453" type="curve" smooth="yes"/>
    </contour>
  </outline>
</glyph>
<glyph name="W" format="2">
  <advance width="1146"/>
  <unicode hex="0057"/>
  <unicode hex="0077"/>
  <anchor x="637" y="760" name="top"/>
  <outline>
    <contour>
      <point x="880" y="594" type="curve" smooth="yes"/>
      <point x="1023" y="397" type="line" smooth="yes"/>
      <point x="1034" y="382"/>
      <point x="1040" y="368"/>
      <point x="1040" y="353" type="curve" smooth="yes"/>
      <point x="1040" y="335"/>
      <point x="1032" y="316"/>
      <point x="1019" y="293" type="curve" smooth="yes"/>
      <point x="980" y="221" type="line" smooth="yes"/>
      <point x="952" y="169"/>
      <point x="929" y="160"/>
      <point x="901" y="160" type="curve" smooth="yes"/>
      <point x="860" y="160"/>
      <point x="838" y="193"/>
      <point x="826" y="244" type="curve" smooth="yes"/>
      <point x="754" y="561" type="line" smooth="yes"/>
      <point x="739" y="625"/>
      <point x="714" y="645"/>
      <point x="676" y="645" type="curve" smooth="yes"/>
      <point x="631" y="645"/>
      <point x="592" y="611"/>
      <point x="560" y="563" type="curve" smooth="yes"/>
      <point x="332" y="222" type="line" smooth="yes"/>
      <point x="300" y="174"/>
      <point x="283" y="156"/>
      <point x="257" y="156" type="curve" smooth="yes"/>
      <point x="221" y="156"/>
      <point x="203" y="177"/>
      <point x="203" y="207" type="curve" smooth="yes"/>
      <point x="203" y="234"/>
      <point x="217" y="256"/>
      <point x="241" y="293" type="curve" smooth="yes"/>
      <point x="386" y="523" type="line" smooth="yes"/>
      <point x="423" y="581"/>
      <point x="448" y="632"/>
      <point x="448" y="675" type="curve" smooth="yes"/>
      <point x="448" y="735"/>
      <point x="402" y="775"/>
      <point x="289" y="775" type="curve" smooth="yes"/>
      <point x="128" y="775"/>
      <point x="30" y="585"/>
      <point x="30" y="447" type="curve" smooth="yes"/>
      <point x="30" y="421"/>
      <point x="53" y="405"/>
      <point x="71" y="405" type="curve" smooth="yes"/>
      <point x="103" y="405"/>
      <point x="122" y="423"/>
      <point x="127" y="466" type="curve" smooth="yes"/>
      <point x="151" y="648" type="line" smooth="yes"/>
      <point x="156" y="686"/>
      <point x="179" y="701"/>
      <point x="202" y="701" type="curve" smooth="yes"/>
      <point x="227" y="701"/>
      <point x="241" y="679"/>
      <point x="234" y="640" type="curve" smooth="yes"/>
      <point x="145" y="194" type="line" smooth="yes"/>
      <point x="141" y="173"/>
      <point x="140" y="154"/>
      <point x="140" y="136" type="curve" smooth="yes"/>
      <point x="140" y="37"/>
      <point x="200" y="-15"/>
      <point x="282" y="-15" type="curve" smooth="yes"/>
      <point x="323" y="-15"/>
      <point x="372" y="7"/>
      <point x="405" y="53" type="curve" smooth="yes"/>
      <point x="684" y="444" type="line" smooth="yes"/>
      <point x="694" y="458"/>
      <point x="707" y="471"/>
      <point x="720" y="471" type="curve" smooth="yes"/>
      <point x="736" y="471"/>
      <point x="741" y="460"/>
      <point x="741" y="449" type="curve" smooth="yes"/>
      <point x="741" y="442"/>
      <point x="740" y="432"/>
      <point x="736" y="424" type="curve" smooth="yes"/>
      <point x="661" y="265" type="line" smooth="yes"/>
      <point x="579" y="92"/>
      <point x="610" y="-15"/>
      <point x="759" y="-15" type="curve" smooth="yes"/>
      <point x="974" y="-15"/>
      <point x="1096" y="275"/>
      <point x="1096" y="470" type="curve" smooth="yes"/>
      <point x="1096" y="700"/>
      <point x="1049" y="775"/>
      <point x="971" y="775" type="curve" smooth="yes"/>
      <point x="894" y="775"/>
      <point x="844" y="730"/>
      <point x="844" y="674" type="curve" smooth="yes"/>
      <point x="844" y="649"/>
      <point x="859" y="623"/>
    </contour>
  </outline>
</glyph>
<glyph name="Z" format="2">
  <advance width="828"/>
  <unicode hex="005A"/>
  <unicode hex="007A"/>
  <anchor x="408" y="760" name="top"/>
  <outline>
    <contour>
      <point x="692" y="193" type="curve"/>
      <point x="366" y="292" type="line" smooth="yes"/>
      <point x="328" y="303"/>
      <point x="330" y="344"/>
      <point x="366" y="359" type="curve" smooth="yes"/>
      <point x="605" y="460" type="line" smooth="yes"/>
      <point x="721" y="509"/>
      <point x="778" y="577"/>
      <point x="778" y="638" type="curve" smooth="yes"/>
      <point x="778" y="705"/>
      <point x="711" y="760"/>
      <point x="585" y="760" type="curve" smooth="yes"/>
      <point x="207" y="760" type="line" smooth="yes"/>
      <point x="116" y="760"/>
      <point x="44" y="726"/>
      <point x="50" y="638" type="curve" smooth="yes"/>
      <point x="55" y="556"/>
      <point x="96" y="519"/>
      <point x="154" y="519" type="curve" smooth="yes"/>
      <point x="191" y="519"/>
      <point x="236" y="534"/>
      <point x="284" y="563" type="curve" smooth="yes"/>
      <point x="542" y="717" type="line" smooth="yes"/>
      <point x="581" y="741"/>
      <point x="615" y="694"/>
      <point x="585" y="664" type="curve" smooth="yes"/>
      <point x="100" y="181" type="line" smooth="yes"/>
      <point x="67" y="148"/>
      <point x="54" y="115"/>
      <point x="54" y="85" type="curve" smooth="yes"/>
      <point x="54" y="29"/>
      <point x="104" y="-14"/>
      <point x="176" y="-14" type="curve" smooth="yes"/>
      <point x="248" y="-14"/>
      <point x="283" y="62"/>
      <point x="283" y="137" type="curve" smooth="yes"/>
      <point x="283" y="205" type="line" smooth="yes"/>
      <point x="283" y="252"/>
      <point x="294" y="266"/>
      <point x="312" y="266" type="curve" smooth="yes"/>
      <point x="324" y="266"/>
      <point x="340" y="254"/>
      <point x="348" y="246" type="curve" smooth="yes"/>
      <point x="542" y="44" type="line" smooth="yes"/>
      <point x="583" y="1"/>
      <point x="636" y="-16"/>
      <point x="671" y="-16" type="curve" smooth="yes"/>
      <point x="739" y="-16"/>
      <point x="772" y="43"/>
      <point x="772" y="95" type="curve" smooth="yes"/>
      <point x="772" y="129"/>
      <point x="752" y="172"/>
    </contour>
  </outline>
</glyph>
<glyph name="bracketleft" format="2">
  <advance width="450"/>
  <unicode hex="005B"/>
  <outline>
    <contour>
      <point x="337" y="40" type="curve" smooth="yes"/>
      <point x="232" y="-5" type="line" smooth="yes"/>
      <point x="182" y="-26"/>
      <point x="152" y="-6"/>
      <point x="171" y="48" type="curve" smooth="yes"/>
      <point x="214" y="169"/>
      <point x="212" y="576"/>
      <point x="171" y="699" type="curve" smooth="yes"/>
      <point x="152" y="753"/>
      <point x="183" y="775"/>
      <point x="232" y="752" type="curve" smooth="yes"/>
      <point x="337" y="707" type="line" smooth="yes"/>
      <point x="389" y="686"/>
      <point x="430" y="727"/>
      <point x="430" y="780" type="curve" smooth="yes"/>
      <point x="430" y="853"/>
      <point x="363" y="865"/>
      <point x="285" y="838" type="curve" smooth="yes"/>
      <point x="203" y="808" type="line" smooth="yes"/>
      <point x="125" y="777"/>
      <point x="80" y="719"/>
      <point x="80" y="595" type="curve" smooth="yes"/>
      <point x="80" y="152" type="line" smooth="yes"/>
      <point x="80" y="28"/>
      <point x="125" y="-30"/>
      <point x="203" y="-61" type="curve" smooth="yes"/>
      <point x="285" y="-91" type="line" smooth="yes"/>
      <point x="363" y="-119"/>
      <point x="430" y="-106"/>
      <point x="430" y="-33" type="curve" smooth="yes"/>
      <point x="430" y="20"/>
      <point x="389" y="62"/>
    </contour>
  </outline>
</glyph>
<glyph name="braceleft" format="2">
  <advance width="421"/>
  <unicode hex="007B"/>
  <outline>
    <contour>
      <point x="366" y="714" type="line" smooth="yes"/>
      <point x="471" y="841"/>
      <point x="242" y="926"/>
      <point x="242" y="759" type="curve" smooth="yes"/>
      <point x="242" y="656" type="line" smooth="yes"/>
      <point x="242" y="594"/>
      <point x="213" y="564"/>
      <point x="181" y="547" type="curve" smooth="yes"/>
      <point x="113" y="510" type="line" smooth="yes"/>
      <point x="48" y="472"/>
      <point x="20" y="441"/>
      <point x="20" y="374" type="curve"/>
      <point x="142" y="374" type="line"/>
      <point x="141" y="411"/>
      <point x="153" y="435"/>
      <point x="182" y="472" type="curve" smooth="yes"/>
    </contour>
    <contour>
      <point x="366" y="34" type="curve" smooth="yes"/>
      <point x="182" y="276" type="line" smooth="yes"/>
      <point x="153" y="313"/>
      <point x="141" y="337"/>
      <point x="142" y="374" type="curve"/>
      <point x="20" y="374" type="line"/>
      <point x="20" y="307"/>
      <point x="48" y="276"/>
      <point x="113" y="238" type="curve" smooth="yes"/>
      <point x="181" y="201" type="line" smooth="yes"/>
      <point x="213" y="184"/>
      <point x="242" y="154"/>
      <point x="242" y="92" type="curve" smooth="yes"/>
      <point x="242" y="-11" type="line" smooth="yes"/>
      <point x="242" y="-178"/>
      <point x="471" y="-93"/>
    </contour>
  </outline>
</glyph>
<glyph name="AE" format="2">
  <advance width="1386"/>
  <unicode hex="00C6"/>
  <unicode hex="00E6"/>
  <outline>
    <contour>
      <point x="688" y="536" type="curve" smooth="yes"/>
      <point x="663" y="664" type="line" smooth="yes"/>
      <point x="650" y="731"/>
      <point x="609" y="775"/>
      <point x="549" y="775" type="curve" smooth="yes"/>
      <point x="484" y="775"/>
      <point x="448" y="749"/>
      <point x="361" y="680" type="curve" smooth="yes"/>
      <point x="160" y="520" type="line" smooth="yes"/>
      <point x="114" y="483"/>
      <point x="84" y="444"/>
      <point x="84" y="401" type="curve" smooth="yes"/>
      <point x="84" y="339"/>
      <point x="132" y="290"/>
      <point x="191" y="290" type="curve" smooth="yes"/>
      <point x="228" y="290"/>
      <point x="284" y="303"/>
      <point x="316" y="369" type="curve" smooth="yes"/>
      <point x="437" y="617" type="line" smooth="yes"/>
      <point x="452" y="648"/>
      <point x="488" y="724"/>
      <point x="530" y="732" type="curve" smooth="yes"/>
      <point x="572" y="740"/>
      <point x="599" y="705"/>
      <point x="592" y="650" type="curve" smooth="yes"/>
      <point x="549" y="296" type="line" smooth="yes"/>
      <point x="543" y="245"/>
      <point x="505" y="234"/>
      <point x="448" y="233" type="curve" smooth="yes"/>
      <point x="190" y="227" type="line" smooth="yes"/>
      <point x="102" y="225"/>
      <point x="30" y="192"/>
      <point x="30" y="112" type="curve" smooth="yes"/>
      <point x="30" y="18"/>
      <point x="95" y="-15"/>
      <point x="153" y="-15" type="curve" smooth="yes"/>
      <point x="235" y="-15"/>
      <point x="309" y="59"/>
      <point x="355" y="98" type="curve" smooth="yes"/>
      <point x="453" y="182" type="line" smooth="yes"/>
      <point x="488" y="212"/>
      <point x="517" y="205"/>
      <point x="517" y="150" type="curve" smooth="yes"/>
      <point x="517" y="98" type="line" smooth="yes"/>
      <point x="517" y="37"/>
      <point x="556" y="-15"/>
      <point x="638" y="-15" type="curve" smooth="yes"/>
      <point x="741" y="-15"/>
      <point x="775" y="70"/>
      <point x="754" y="183" type="curve" smooth="yes"/>
      <point x="749" y="210" type="line" smooth="yes"/>
      <point x="744" y="235"/>
      <point x="753" y="248"/>
      <point x="765" y="248" type="curve" smooth="yes"/>
      <point x="776" y="248"/>
      <point x="784" y="245"/>
      <point x="802" y="231" type="curve" smooth="yes"/>
      <point x="1037" y="45" type="line" smooth="yes"/>
      <point x="1083" y="9"/>
      <point x="1128" y="-14"/>
      <point x="1170" y="-14" type="curve" smooth="yes"/>
      <point x="1232" y="-14"/>
      <point x="1275" y="37"/>
      <point x="1275" y="96" type="curve" smooth="yes"/>
      <point x="1275" y="161"/>
      <point x="1220" y="195"/>
      <point x="1148" y="211" type="curve" smooth="yes"/>
      <point x="776" y="293" type="line" smooth="yes"/>
      <point x="743" y="300"/>
      <point x="725" y="314"/>
      <point x="729" y="335" type="curve" smooth="yes"/>
      <point x="733" y="357"/>
      <point x="751" y="361"/>
      <point x="790" y="357" type="curve" smooth="yes"/>
      <point x="1258" y="314" type="line" smooth="yes"/>
      <point x="1322" y="308"/>
      <point x="1366" y="327"/>
      <point x="1366" y="399" type="curve" smooth="yes"/>
      <point x="1366" y="472"/>
      <point x="1322" y="496"/>
      <point x="1258" y="485" type="curve" smooth="yes"/>
      <point x="773" y="400" type="line" smooth="yes"/>
      <point x="734" y="393"/>
      <point x="716" y="400"/>
      <point x="712" y="422" type="curve" smooth="yes"/>
      <point x="708" y="443"/>
      <point x="726" y="456"/>
      <point x="759" y="464" type="curve" smooth="yes"/>
      <point x="1098" y="547" type="line" smooth="yes"/>
      <point x="1170" y="565"/>
      <point x="1225" y="597"/>
      <point x="1225" y="662" type="curve" smooth="yes"/>
      <point x="1225" y="721"/>
      <point x="1182" y="772"/>
      <point x="1120" y="772" type="curve" smooth="yes"/>
      <point x="1078" y="772"/>
      <point x="1032" y="750"/>
      <point x="987" y="710" type="curve" smooth="yes"/>
      <point x="766" y="516" type="line" smooth="yes"/>
      <point x="748" y="500"/>
      <point x="740" y="496"/>
      <point x="721" y="496" type="curve" smooth="yes"/>
      <point x="704" y="496"/>
      <point x="693" y="511"/>
    </contour>
  </outline>
</glyph>
<glyph name="Eth" format="2">
  <advance width="867"/>
  <unicode hex="00D0"/>
  <unicode hex="00F0"/>
  <outline>
    <contour>
      <point x="114" y="445" type="curve"/>
      <point x="201" y="423" type="line"/>
      <point x="316" y="492" type="line"/>
      <point x="278" y="486" type="line" smooth="yes"/>
      <point x="241" y="480"/>
      <point x="226" y="501"/>
      <point x="226" y="531" type="curve" smooth="yes"/>
      <point x="226" y="561"/>
      <point x="263" y="582"/>
      <point x="326" y="595" type="curve" smooth="yes"/>
      <point x="576" y="646" type="line" smooth="yes"/>
      <point x="652" y="661"/>
      <point x="718" y="611"/>
      <point x="678" y="514" type="curve" smooth="yes"/>
      <point x="505" y="97" type="line" smooth="yes"/>
      <point x="474" y="23"/>
      <point x="363" y="4"/>
      <point x="334" y="107" type="curve" smooth="yes"/>
      <point x="309" y="195" type="line" smooth="yes"/>
      <point x="290" y="261"/>
      <point x="254" y="290"/>
      <point x="225" y="304" type="curve" smooth="yes"/>
      <point x="207" y="313"/>
      <point x="199" y="328"/>
      <point x="199" y="347" type="curve" smooth="yes"/>
      <point x="200" y="371"/>
      <point x="221" y="394"/>
      <point x="290" y="394" type="curve"/>
      <point x="201" y="423" type="line"/>
      <point x="120" y="396" type="line"/>
      <point x="169" y="396"/>
      <point x="173" y="376"/>
      <point x="173" y="362" type="curve" smooth="yes"/>
      <point x="173" y="344"/>
      <point x="167" y="329"/>
      <point x="150" y="314" type="curve" smooth="yes"/>
      <point x="129" y="296"/>
      <point x="101" y="274"/>
      <point x="101" y="226" type="curve" smooth="yes"/>
      <point x="101" y="125"/>
      <point x="158" y="-13"/>
      <point x="356" y="-14" type="curve" smooth="yes"/>
      <point x="661" y="-15"/>
      <point x="807" y="118"/>
      <point x="807" y="375" type="curve" smooth="yes"/>
      <point x="807" y="620"/>
      <point x="722" y="760"/>
      <point x="505" y="760" type="curve" smooth="yes"/>
      <point x="158" y="760" type="line" smooth="yes"/>
      <point x="92" y="760"/>
      <point x="57" y="707"/>
      <point x="57" y="655" type="curve" smooth="yes"/>
      <point x="57" y="609"/>
      <point x="83" y="571"/>
      <point x="139" y="561" type="curve" smooth="yes"/>
      <point x="172" y="556"/>
      <point x="186" y="539"/>
      <point x="186" y="519" type="curve" smooth="yes"/>
      <point x="186" y="481"/>
      <point x="158" y="454"/>
    </contour>
    <contour>
      <point x="77" y="397" type="curve" smooth="yes"/>
      <point x="466" y="390" type="line" smooth="yes"/>
      <point x="585" y="388"/>
      <point x="579" y="553"/>
      <point x="445" y="522" type="curve" smooth="yes"/>
      <point x="79" y="437" type="line" smooth="yes"/>
      <point x="43" y="429"/>
      <point x="51" y="397"/>
    </contour>
  </outline>
</glyph>
<glyph name="Oslash" format="2">
  <advance width="850"/>
  <unicode hex="00D8"/>
  <unicode hex="00F8"/>
  <anchor x="406" y="0" name="bottom"/>
  <anchor x="401" y="760" name="top"/>
  <outline>
    <contour>
      <point x="724" y="611"/>
      <point x="790" y="621"/>
      <point x="790" y="683" type="curve" smooth="yes"/>
      <point x="790" y="732"/>
      <point x="748" y="775"/>
      <point x="700" y="775" type="curve" smooth="yes"/>
      <point x="648" y="775"/>
      <point x="637" y="724"/>
      <point x="598" y="724" type="curve" smooth="yes"/>
      <point x="552" y="724"/>
      <point x="504" y="775"/>
      <point x="371" y="775" type="curve" smooth="yes"/>
      <point x="168" y="775"/>
      <point x="60" y="623"/>
      <point x="60" y="378" type="curve" smooth="yes"/>
      <point x="60" y="274"/>
      <point x="79" y="189"/>
      <point x="117" y="127" type="curve" smooth="yes"/>
      <point x="126" y="112"/>
      <point x="134" y="89"/>
      <point x="120" y="71" type="curve" smooth="yes"/>
      <point x="79" y="17" type="line" smooth="yes"/>
      <point x="59" y="-9"/>
      <point x="85" y="-26"/>
      <point x="107" y="-6" type="curve" smooth="yes"/>
      <point x="151" y="33" type="line" smooth="yes"/>
      <point x="171" y="50"/>
      <point x="186" y="49"/>
      <point x="214" y="31" type="curve" smooth="yes"/>
      <point x="266" y="-2"/>
      <point x="334" y="-15"/>
      <point x="414" y="-15" type="curve" smooth="yes"/>
      <point x="619" y="-15"/>
      <point x="778" y="90"/>
      <point x="778" y="290" type="curve" smooth="yes"/>
      <point x="778" y="477"/>
      <point x="724" y="463"/>
      <point x="724" y="558" type="curve" smooth="yes"/>
    </contour>
    <contour>
      <point x="154" y="202" type="curve" smooth="yes"/>
      <point x="313" y="657" type="line" smooth="yes"/>
      <point x="327" y="698"/>
      <point x="360" y="716"/>
      <point x="395" y="716" type="curve" smooth="yes"/>
      <point x="446" y="716"/>
      <point x="500" y="676"/>
      <point x="500" y="615" type="curve" smooth="yes"/>
      <point x="500" y="589"/>
      <point x="490" y="558"/>
      <point x="465" y="525" type="curve" smooth="yes"/>
      <point x="205" y="182" type="line" smooth="yes"/>
      <point x="194" y="167"/>
      <point x="183" y="160"/>
      <point x="174" y="160" type="curve" smooth="yes"/>
      <point x="154" y="160"/>
      <point x="146" y="180"/>
    </contour>
    <contour>
      <point x="634" y="255" type="curve" smooth="yes"/>
      <point x="292" y="92" type="line" smooth="yes"/>
      <point x="268" y="82"/>
      <point x="246" y="85"/>
      <point x="246" y="106" type="curve" smooth="yes"/>
      <point x="246" y="116"/>
      <point x="252" y="128"/>
      <point x="264" y="141" type="curve" smooth="yes"/>
      <point x="549" y="440" type="line" smooth="yes"/>
      <point x="579" y="471"/>
      <point x="608" y="484"/>
      <point x="634" y="484" type="curve" smooth="yes"/>
      <point x="685" y="484"/>
      <point x="722" y="435"/>
      <point x="722" y="380" type="curve" smooth="yes"/>
      <point x="722" y="334"/>
      <point x="697" y="285"/>
    </contour>
  </outline>
</glyph>
<glyph name="Thorn" format="2">
  <advance width="806"/>
  <unicode hex="00DE"/>
  <unicode hex="00FE"/>
  <outline>
    <contour>
      <point x="594" y="718" type="curve" smooth="yes"/>
      <point x="508" y="718"/>
      <point x="462" y="693"/>
      <point x="397" y="636" type="curve"/>
      <point x="175" y="461" type="line" smooth="yes"/>
      <point x="122" y="422"/>
      <point x="91" y="474"/>
      <point x="136" y="513" type="curve"/>
      <point x="235" y="588"/>
      <point x="292" y="632"/>
      <point x="292" y="694" type="curve" smooth="yes"/>
      <point x="292" y="737"/>
      <point x="259" y="779"/>
      <point x="182" y="779" type="curve" smooth="yes"/>
      <point x="113" y="779"/>
      <point x="65" y="725"/>
      <point x="65" y="648" type="curve" smooth="yes"/>
      <point x="65" y="116" type="line" smooth="yes"/>
      <point x="65" y="39"/>
      <point x="113" y="-15"/>
      <point x="182" y="-15" type="curve" smooth="yes"/>
      <point x="259" y="-15"/>
      <point x="292" y="27"/>
      <point x="292" y="70" type="curve" smooth="yes"/>
      <point x="292" y="132"/>
      <point x="235" y="176"/>
      <point x="136" y="251" type="curve"/>
      <point x="91" y="290"/>
      <point x="122" y="342"/>
      <point x="175" y="303" type="curve" smooth="yes"/>
      <point x="397" y="128" type="line"/>
      <point x="462" y="71"/>
      <point x="508" y="46"/>
      <point x="594" y="46" type="curve" smooth="yes"/>
      <point x="745" y="46"/>
      <point x="776" y="164"/>
      <point x="776" y="247" type="curve" smooth="yes"/>
      <point x="776" y="517" type="line" smooth="yes"/>
      <point x="776" y="600"/>
      <point x="745" y="718"/>
    </contour>
    <contour>
      <point x="568" y="327" type="curve" smooth="yes"/>
      <point x="684" y="257" type="line"/>
      <point x="746" y="227"/>
      <point x="711" y="152"/>
      <point x="647" y="175" type="curve" smooth="yes"/>
      <point x="256" y="313" type="line" smooth="yes"/>
      <point x="217" y="327"/>
      <point x="172" y="342"/>
      <point x="172" y="382" type="curve" smooth="yes"/>
      <point x="172" y="418"/>
      <point x="208" y="434"/>
      <point x="256" y="451" type="curve" smooth="yes"/>
      <point x="647" y="589" type="line" smooth="yes"/>
      <point x="711" y="612"/>
      <point x="746" y="537"/>
      <point x="684" y="507" type="curve"/>
      <point x="568" y="437" type="line" smooth="yes"/>
      <point x="546" y="424"/>
      <point x="535" y="403"/>
      <point x="535" y="382" type="curve" smooth="yes"/>
      <point x="535" y="361"/>
      <point x="546" y="340"/>
    </contour>
  </outline>
</glyph>
<glyph name="germandbls" format="2">
  <advance width="862"/>
  <unicode hex="00DF"/>
  <outline>
    <contour>
      <point x="773" y="247" type="curve" smooth="yes"/>
      <point x="653" y="361" type="line" smooth="yes"/>
      <point x="606" y="406"/>
      <point x="613" y="449"/>
      <point x="676" y="490" type="curve" smooth="yes"/>
      <point x="711" y="513" type="line" smooth="yes"/>
      <point x="790" y="566"/>
      <point x="822" y="606"/>
      <point x="822" y="654" type="curve" smooth="yes"/>
      <point x="822" y="726"/>
      <point x="761" y="760"/>
      <point x="632" y="760" type="curve" smooth="yes"/>
      <point x="362" y="760" type="line" smooth="yes"/>
      <point x="251" y="760"/>
      <point x="214" y="727"/>
      <point x="182" y="600" type="curve" smooth="yes"/>
      <point x="68" y="152" type="line" smooth="yes"/>
      <point x="42" y="49"/>
      <point x="79" y="-14"/>
      <point x="165" y="-14" type="curve" smooth="yes"/>
      <point x="239" y="-14"/>
      <point x="285" y="40"/>
      <point x="278" y="120" type="curve" smooth="yes"/>
      <point x="241" y="557" type="line" smooth="yes"/>
      <point x="235" y="636"/>
      <point x="269" y="678"/>
      <point x="370" y="653" type="curve" smooth="yes"/>
      <point x="597" y="598" type="line" smooth="yes"/>
      <point x="640" y="588"/>
      <point x="670" y="566"/>
      <point x="666" y="544" type="curve" smooth="yes"/>
      <point x="662" y="518"/>
      <point x="640" y="507"/>
      <point x="603" y="512" type="curve" smooth="yes"/>
      <point x="468" y="531"/>
      <point x="407" y="514"/>
      <point x="391" y="452" type="curve" smooth="yes"/>
      <point x="377" y="400"/>
      <point x="409" y="357"/>
      <point x="503" y="301" type="curve" smooth="yes"/>
      <point x="711" y="181" type="line" smooth="yes"/>
      <point x="782" y="141"/>
      <point x="747" y="51"/>
      <point x="675" y="88" type="curve" smooth="yes"/>
      <point x="497" y="182" type="line" smooth="yes"/>
      <point x="424" y="221"/>
      <point x="344" y="184"/>
      <point x="338" y="109" type="curve" smooth="yes"/>
      <point x="332" y="35"/>
      <point x="407" y="-15"/>
      <point x="524" y="-15" type="curve" smooth="yes"/>
      <point x="757" y="-15"/>
      <point x="895" y="130"/>
    </contour>
  </outline>
</glyph>
<glyph name="Hbar" format="2">
  <advance width="866"/>
  <unicode hex="0126"/>
  <outline>
    <contour>
      <point x="34" y="498" type="curve" smooth="yes"/>
      <point x="57" y="498" type="line" smooth="yes"/>
      <point x="88" y="498"/>
      <point x="101" y="490"/>
      <point x="98" y="461" type="curve" smooth="yes"/>
      <point x="61" y="115" type="line" smooth="yes"/>
      <point x="51" y="20"/>
      <point x="105" y="-15"/>
      <point x="162" y="-15" type="curve" smooth="yes"/>
      <point x="222" y="-15"/>
      <point x="280" y="20"/>
      <point x="280" y="76" type="curve" smooth="yes"/>
      <point x="280" y="120"/>
      <point x="260" y="146"/>
      <point x="221" y="165" type="curve" smooth="yes"/>
      <point x="182" y="184"/>
      <point x="170" y="197"/>
      <point x="170" y="217" type="curve" smooth="yes"/>
      <point x="170" y="232"/>
      <point x="183" y="245"/>
      <point x="222" y="253" type="curve" smooth="yes"/>
      <point x="618" y="331" type="line" smooth="yes"/>
      <point x="664" y="340"/>
      <point x="682" y="324"/>
      <point x="682" y="298" type="curve" smooth="yes"/>
      <point x="682" y="276"/>
      <point x="671" y="261"/>
      <point x="649" y="249" type="curve" smooth="yes"/>
      <point x="565" y="201" type="line" smooth="yes"/>
      <point x="509" y="169"/>
      <point x="503" y="120"/>
      <point x="503" y="88" type="curve" smooth="yes"/>
      <point x="503" y="37"/>
      <point x="539" y="-15"/>
      <point x="606" y="-15" type="curve" smooth="yes"/>
      <point x="713" y="-15"/>
      <point x="738" y="50"/>
      <point x="746" y="122" type="curve" smooth="yes"/>
      <point x="783" y="460" type="line" smooth="yes"/>
      <point x="785" y="482"/>
      <point x="791" y="491"/>
      <point x="817" y="491" type="curve" smooth="yes"/>
      <point x="843" y="491" type="line" smooth="yes"/>
      <point x="895" y="490"/>
      <point x="915" y="514"/>
      <point x="915" y="555" type="curve" smooth="yes"/>
      <point x="915" y="593"/>
      <point x="886" y="611"/>
      <point x="834" y="611" type="curve" smooth="yes"/>
      <point x="808" y="611"/>
      <point x="798" y="622"/>
      <point x="801" y="644" type="curve" smooth="yes"/>
      <point x="806" y="678" type="line" smooth="yes"/>
      <point x="815" y="738"/>
      <point x="758" y="775"/>
      <point x="701" y="775" type="curve" smooth="yes"/>
      <point x="620" y="775"/>
      <point x="583" y="731"/>
      <point x="583" y="676" type="curve" smooth="yes"/>
      <point x="583" y="662"/>
      <point x="587" y="648"/>
      <point x="595" y="630" type="curve" smooth="yes"/>
      <point x="606" y="605"/>
      <point x="600" y="591"/>
      <point x="575" y="589" type="curve" smooth="yes"/>
      <point x="357" y="568" type="line" smooth="yes"/>
      <point x="325" y="565"/>
      <point x="320" y="589"/>
      <point x="338" y="610" type="curve" smooth="yes"/>
      <point x="354" y="629"/>
      <point x="364" y="654"/>
      <point x="364" y="683" type="curve" smooth="yes"/>
      <point x="364" y="737"/>
      <point x="325" y="775"/>
      <point x="257" y="775" type="curve" smooth="yes"/>
      <point x="150" y="775"/>
      <point x="122" y="678"/>
      <point x="114" y="608" type="curve" smooth="yes"/>
      <point x="108" y="557"/>
      <point x="87" y="542"/>
      <point x="60" y="540" type="curve" smooth="yes"/>
      <point x="36" y="538" type="line" smooth="yes"/>
      <point x="19" y="537"/>
      <point x="12" y="530"/>
      <point x="12" y="518" type="curve" smooth="yes"/>
      <point x="12" y="505"/>
      <point x="20" y="498"/>
    </contour>
    <contour>
      <point x="155" y="424" type="curve" smooth="yes"/>
      <point x="155" y="443"/>
      <point x="160" y="453"/>
      <point x="190" y="475" type="curve" smooth="yes"/>
      <point x="205" y="486"/>
      <point x="226" y="496"/>
      <point x="261" y="496" type="curve" smooth="yes"/>
      <point x="626" y="492" type="line" smooth="yes"/>
      <point x="660" y="492"/>
      <point x="675" y="486"/>
      <point x="684" y="466" type="curve" smooth="yes"/>
      <point x="707" y="415"/>
      <point x="696" y="383"/>
      <point x="636" y="383" type="curve" smooth="yes"/>
      <point x="213" y="383" type="line" smooth="yes"/>
      <point x="179" y="383"/>
      <point x="155" y="397"/>
    </contour>
  </outline>
</glyph>
<glyph name="OE" format="2">
  <advance width="1476"/>
  <unicode hex="0152"/>
  <unicode hex="0153"/>
  <outline>
    <contour>
      <point x="735" y="331" type="curve" smooth="yes"/>
      <point x="431" y="72" type="line" smooth="yes"/>
      <point x="387" y="34"/>
      <point x="329" y="51"/>
      <point x="313" y="103" type="curve" smooth="yes"/>
      <point x="178" y="534" type="line" smooth="yes"/>
      <point x="149" y="628"/>
      <point x="217" y="686"/>
      <point x="292" y="648" type="curve" smooth="yes"/>
      <point x="711" y="436" type="line" smooth="yes"/>
      <point x="756" y="413"/>
      <point x="774" y="365"/>
    </contour>
    <contour>
      <point x="414" y="-15" type="curve" smooth="yes"/>
      <point x="582" y="-15"/>
      <point x="681" y="40"/>
      <point x="738" y="241" type="curve" smooth="yes"/>
      <point x="745" y="266"/>
      <point x="754" y="281"/>
      <point x="771" y="281" type="curve" smooth="yes"/>
      <point x="790" y="281"/>
      <point x="798" y="274"/>
      <point x="816" y="261" type="curve" smooth="yes"/>
      <point x="1127" y="45" type="line" smooth="yes"/>
      <point x="1177" y="11"/>
      <point x="1218" y="-14"/>
      <point x="1260" y="-14" type="curve" smooth="yes"/>
      <point x="1322" y="-14"/>
      <point x="1365" y="37"/>
      <point x="1365" y="96" type="curve" smooth="yes"/>
      <point x="1365" y="161"/>
      <point x="1310" y="195"/>
      <point x="1238" y="211" type="curve" smooth="yes"/>
      <point x="866" y="293" type="line" smooth="yes"/>
      <point x="833" y="300"/>
      <point x="815" y="314"/>
      <point x="819" y="335" type="curve" smooth="yes"/>
      <point x="823" y="357"/>
      <point x="841" y="361"/>
      <point x="880" y="357" type="curve" smooth="yes"/>
      <point x="1348" y="314" type="line" smooth="yes"/>
      <point x="1412" y="308"/>
      <point x="1456" y="327"/>
      <point x="1456" y="399" type="curve" smooth="yes"/>
      <point x="1456" y="472"/>
      <point x="1412" y="497"/>
      <point x="1348" y="485" type="curve" smooth="yes"/>
      <point x="880" y="401" type="line" smooth="yes"/>
      <point x="841" y="394"/>
      <point x="823" y="401"/>
      <point x="819" y="423" type="curve" smooth="yes"/>
      <point x="815" y="444"/>
      <point x="833" y="457"/>
      <point x="866" y="465" type="curve" smooth="yes"/>
      <point x="1188" y="547" type="line" smooth="yes"/>
      <point x="1260" y="565"/>
      <point x="1315" y="597"/>
      <point x="1315" y="662" type="curve" smooth="yes"/>
      <point x="1315" y="721"/>
      <point x="1272" y="772"/>
      <point x="1210" y="772" type="curve" smooth="yes"/>
      <point x="1168" y="772"/>
      <point x="1124" y="748"/>
      <point x="1077" y="710" type="curve" smooth="yes"/>
      <point x="816" y="497" type="line" smooth="yes"/>
      <point x="799" y="483"/>
      <point x="790" y="477"/>
      <point x="771" y="477" type="curve" smooth="yes"/>
      <point x="754" y="477"/>
      <point x="745" y="492"/>
      <point x="738" y="517" type="curve" smooth="yes"/>
      <point x="681" y="718"/>
      <point x="582" y="775"/>
      <point x="414" y="775" type="curve" smooth="yes"/>
      <point x="182" y="775"/>
      <point x="60" y="644"/>
      <point x="60" y="382" type="curve" smooth="yes"/>
      <point x="60" y="120"/>
      <point x="182" y="-15"/>
    </contour>
  </outline>
</glyph>
<glyph name="Tbar" format="2">
  <advance width="765"/>
  <unicode hex="0166"/>
  <anchor x="463" y="0" name="bottom"/>
  <anchor x="407" y="331" name="center"/>
  <anchor x="348" y="760" name="top"/>
  <outline>
    <contour>
      <point x="10" y="521" type="curve" smooth="yes"/>
      <point x="10" y="459"/>
      <point x="58" y="404"/>
      <point x="122" y="402" type="curve" smooth="yes"/>
      <point x="213" y="399"/>
      <point x="242" y="465"/>
      <point x="242" y="603" type="curve" smooth="yes"/>
      <point x="242" y="647" type="line" smooth="yes"/>
      <point x="242" y="691"/>
      <point x="252" y="724"/>
      <point x="286" y="724" type="curve" smooth="yes"/>
      <point x="313" y="724"/>
      <point x="321" y="698"/>
      <point x="325" y="635" type="curve" smooth="yes"/>
      <point x="340" y="364" type="line" smooth="yes"/>
      <point x="341" y="345"/>
      <point x="332" y="336"/>
      <point x="311" y="338" type="curve" smooth="yes"/>
      <point x="169" y="351" type="line" smooth="yes"/>
      <point x="108" y="357"/>
      <point x="89" y="309"/>
      <point x="99" y="269" type="curve" smooth="yes"/>
      <point x="108" y="232"/>
      <point x="141" y="200"/>
      <point x="208" y="231" type="curve" smooth="yes"/>
      <point x="306" y="276" type="line" smooth="yes"/>
      <point x="329" y="286"/>
      <point x="342" y="276"/>
      <point x="341" y="258" type="curve" smooth="yes"/>
      <point x="336" y="146" type="line" smooth="yes"/>
      <point x="331" y="40"/>
      <point x="358" y="-15"/>
      <point x="454" y="-15" type="curve" smooth="yes"/>
      <point x="561" y="-15"/>
      <point x="586" y="63"/>
      <point x="542" y="171" type="curve" smooth="yes"/>
      <point x="501" y="269" type="line" smooth="yes"/>
      <point x="494" y="288"/>
      <point x="499" y="308"/>
      <point x="524" y="305" type="curve" smooth="yes"/>
      <point x="638" y="292" type="line" smooth="yes"/>
      <point x="699" y="285"/>
      <point x="718" y="334"/>
      <point x="708" y="374" type="curve" smooth="yes"/>
      <point x="699" y="411"/>
      <point x="665" y="443"/>
      <point x="599" y="412" type="curve" smooth="yes"/>
      <point x="512" y="371" type="line" smooth="yes"/>
      <point x="480" y="355"/>
      <point x="465" y="365"/>
      <point x="458" y="391" type="curve" smooth="yes"/>
      <point x="381" y="639" type="line" smooth="yes"/>
      <point x="363" y="697"/>
      <point x="371" y="719"/>
      <point x="398" y="719" type="curve" smooth="yes"/>
      <point x="407" y="719"/>
      <point x="418" y="714"/>
      <point x="428" y="703" type="curve" smooth="yes"/>
      <point x="540" y="578" type="line" smooth="yes"/>
      <point x="632" y="476"/>
      <point x="780" y="534"/>
      <point x="780" y="649" type="curve" smooth="yes"/>
      <point x="780" y="700"/>
      <point x="747" y="760"/>
      <point x="643" y="760" type="curve" smooth="yes"/>
      <point x="301" y="760" type="line" smooth="yes"/>
      <point x="120" y="760"/>
      <point x="10" y="660"/>
    </contour>
  </outline>
</glyph>
<glyph name="Scommaaccent" format="2">
  <advance width="834"/>
  <unicode hex="0218"/>
  <anchor x="403" y="0" name="_bottom"/>
  <outline>
    <contour>
      <point x="317" y="-220" type="line" smooth="yes"/>
      <point x="316" y="-246"/>
      <point x="334" y="-256"/>
      <point x="352" y="-245" type="curve" smooth="yes"/>
      <point x="492" y="-159" type="line" smooth="yes"/>
      <point x="549" y="-124"/>
      <point x="532" y="-77"/>
      <point x="461" y="-52" type="curve" smooth="yes"/>
      <point x="405" y="-32"/>
      <point x="327" y="-34"/>
      <point x="323" y="-105" type="curve" smooth="yes"/>
    </contour>
    <component base="S"/>
  </outline>
</glyph>
<glyph name="Tcommaaccent" format="2">
  <advance width="765"/>
  <unicode hex="021A"/>
  <outline>
    <contour>
      <point x="374" y="-220" type="line" smooth="yes"/>
      <point x="373" y="-246"/>
      <point x="391" y="-256"/>
      <point x="409" y="-245" type="curve" smooth="yes"/>
      <point x="549" y="-159" type="line" smooth="yes"/>
      <point x="606" y="-124"/>
      <point x="589" y="-77"/>
      <point x="518" y="-52" type="curve" smooth="yes"/>
      <point x="462" y="-32"/>
      <point x="384" y="-34"/>
      <point x="380" y="-105" type="curve" smooth="yes"/>
    </contour>
    <component base="T"/>
  </outline>
</glyph>
<glyph name="acutecomb" format="2">
  <advance width="600"/>
  <unicode hex="0301"/>
  <anchor x="294" y="760" name="_top"/>
  <outline>
    <contour>
      <point x="259" y="804" type="curve" smooth="yes"/>
      <point x="442" y="839" type="line" smooth="yes"/>
      <point x="499" y="850"/>
      <point x="513" y="888"/>
      <point x="501" y="927" type="curve" smooth="yes"/>
      <point x="487" y="974"/>
      <point x="427" y="989"/>
      <point x="387" y="956" type="curve" smooth="yes"/>
      <point x="241" y="836" type="line" smooth="yes"/>
      <point x="228" y="825"/>
      <point x="238" y="800"/>
    </contour>
  </outline>
</glyph>
<glyph name="circumflexcomb" format="2">
  <advance width="600"/>
  <unicode hex="0302"/>
  <anchor x="294" y="760" name="_top"/>
  <outline>
    <contour>
      <point x="299" y="946" type="curve" smooth="yes"/>
      <point x="308" y="946"/>
      <point x="317" y="941"/>
      <point x="325" y="930" type="curve" smooth="yes"/>
      <point x="381" y="849" type="line" smooth="yes"/>
      <point x="402" y="819"/>
      <point x="417" y="812"/>
      <point x="435" y="812" type="curve" smooth="yes"/>
      <point x="474" y="812"/>
      <point x="499" y="840"/>
      <point x="499" y="891" type="curve" smooth="yes"/>
      <point x="499" y="929"/>
      <point x="482" y="961"/>
      <point x="435" y="965" type="curve" smooth="yes"/>
      <point x="390" y="969"/>
      <point x="344" y="972"/>
      <point x="299" y="971" type="curve" smooth="yes"/>
      <point x="254" y="972"/>
      <point x="208" y="969"/>
      <point x="163" y="965" type="curve" smooth="yes"/>
      <point x="116" y="961"/>
      <point x="99" y="929"/>
      <point x="99" y="891" type="curve" smooth="yes"/>
      <point x="99" y="840"/>
      <point x="124" y="812"/>
      <point x="163" y="812" type="curve" smooth="yes"/>
      <point x="181" y="812"/>
      <point x="196" y="819"/>
      <point x="217" y="849" type="curve" smooth="yes"/>
      <point x="273" y="930" type="line" smooth="yes"/>
      <point x="281" y="941"/>
      <point x="290" y="946"/>
    </contour>
  </outline>
</glyph>
<glyph name="tildecomb" format="2">
  <advance width="600"/>
  <unicode hex="0303"/>
  <anchor x="294" y="760" name="_top"/>
  <outline>
    <contour>
      <point x="316" y="896" type="line" smooth="yes"/>
      <point x="276" y="941"/>
      <point x="249" y="959"/>
      <point x="213" y="959" type="curve" smooth="yes"/>
      <point x="120" y="959"/>
      <point x="41" y="929"/>
      <point x="65" y="852" type="curve" smooth="yes"/>
      <point x="81" y="800"/>
      <point x="151" y="797"/>
      <point x="179" y="838" type="curve" smooth="yes"/>
      <point x="217" y="893" type="line" smooth="yes"/>
      <point x="229" y="911"/>
      <point x="241" y="911"/>
      <point x="256" y="893" type="curve" smooth="yes"/>
      <point x="275" y="870" type="line" smooth="yes"/>
      <point x="311" y="826"/>
      <point x="340" y="811"/>
      <point x="376" y="811" type="curve" smooth="yes"/>
      <point x="469" y="811"/>
      <point x="529" y="836"/>
      <point x="520" y="913" type="curve" smooth="yes"/>
      <point x="514" y="965"/>
      <point x="444" y="981"/>
      <point x="410" y="932" type="curve" smooth="yes"/>
      <point x="372" y="877" type="line" smooth="yes"/>
      <point x="360" y="859"/>
      <point x="348" y="861"/>
      <point x="333" y="877" type="curve" smooth="yes"/>
    </contour>
  </outline>
</glyph>
<glyph name="ringcomb" format="2">
  <advance width="600"/>
  <unicode hex="030A"/>
  <anchor x="294" y="760" name="_top"/>
  <outline>
    <contour>
      <point x="411" y="802"/>
      <point x="424" y="876" type="curve" smooth="yes"/>
      <point x="433" y="927"/>
      <point x="399" y="953"/>
      <point x="351" y="961" type="curve" smooth="yes"/>
      <point x="283" y="972"/>
      <point x="192" y="975"/>
      <point x="179" y="905" type="curve" smooth="yes"/>
      <point x="172" y="866"/>
      <point x="182" y="832"/>
      <point x="263" y="817" type="curve" smooth="yes"/>
      <point x="330" y="805"/>
    </contour>
    <contour>
      <point x="257" y="843"/>
      <point x="252" y="882" type="curve" smooth="yes"/>
      <point x="249" y="909"/>
      <point x="260" y="922"/>
      <point x="275" y="927" type="curve" smooth="yes"/>
      <point x="304" y="936"/>
      <point x="345" y="934"/>
      <point x="350" y="897" type="curve" smooth="yes"/>
      <point x="353" y="877"/>
      <point x="349" y="859"/>
      <point x="321" y="851" type="curve" smooth="yes"/>
      <point x="292" y="843"/>
    </contour>
  </outline>
</glyph>
<glyph name="commaaccentcomb" format="2">
  <advance width="586"/>
  <unicode hex="0326"/>
  <anchor x="294" y="0" name="_bottom"/>
  <outline>
    <contour>
      <point x="208" y="-220" type="line" smooth="yes"/>
      <point x="207" y="-246"/>
      <point x="225" y="-256"/>
      <point x="243" y="-245" type="curve" smooth="yes"/>
      <point x="383" y="-159" type="line" smooth="yes"/>
      <point x="440" y="-124"/>
      <point x="423" y="-51"/>
      <point x="352" y="-26" type="curve" smooth="yes"/>
      <point x="296" y="-6"/>
      <point x="217" y="-8"/>
      <point x="214" y="-79" type="curve" smooth="yes"/>
    </contour>
  </outline>
</glyph>
<glyph name="Dje-cy" format="2">
  <advance width="991"/>
  <unicode hex="0402"/>
  <unicode hex="0452"/>
  <outline>
    <contour>
      <point x="15" y="529" type="curve" smooth="yes"/>
      <point x="15" y="461"/>
      <point x="57" y="410"/>
      <point x="117" y="410" type="curve" smooth="yes"/>
      <point x="191" y="410"/>
      <point x="232" y="468"/>
      <point x="232" y="603" type="curve" smooth="yes"/>
      <point x="232" y="647" type="line" smooth="yes"/>
      <point x="232" y="691"/>
      <point x="242" y="724"/>
      <point x="276" y="724" type="curve" smooth="yes"/>
      <point x="303" y="724"/>
      <point x="317" y="698"/>
      <point x="315" y="635" type="curve" smooth="yes"/>
      <point x="296" y="146" type="line" smooth="yes"/>
      <point x="291" y="30"/>
      <point x="345" y="-15"/>
      <point x="424" y="-15" type="curve" smooth="yes"/>
      <point x="533" y="-15"/>
      <point x="560" y="92"/>
      <point x="481" y="169" type="curve" smooth="yes"/>
      <point x="445" y="204" type="line" smooth="yes"/>
      <point x="417" y="232"/>
      <point x="425" y="267"/>
      <point x="458" y="276" type="curve" smooth="yes"/>
      <point x="774" y="358" type="line" smooth="yes"/>
      <point x="905" y="392"/>
      <point x="940" y="217"/>
      <point x="828" y="185" type="curve" smooth="yes"/>
      <point x="709" y="151" type="line" smooth="yes"/>
      <point x="625" y="127"/>
      <point x="585" y="86"/>
      <point x="585" y="27" type="curve" smooth="yes"/>
      <point x="585" y="-79"/>
      <point x="729" y="-114"/>
      <point x="814" y="-6" type="curve" smooth="yes"/>
      <point x="857" y="49" type="line" smooth="yes"/>
      <point x="912" y="119"/>
      <point x="946" y="173"/>
      <point x="946" y="249" type="curve" smooth="yes"/>
      <point x="946" y="327"/>
      <point x="918" y="379"/>
      <point x="854" y="416" type="curve" smooth="yes"/>
      <point x="771" y="464" type="line" smooth="yes"/>
      <point x="671" y="522"/>
      <point x="595" y="517"/>
      <point x="516" y="424" type="curve" smooth="yes"/>
      <point x="419" y="310" type="line" smooth="yes"/>
      <point x="384" y="269"/>
      <point x="329" y="300"/>
      <point x="352" y="353" type="curve" smooth="yes"/>
      <point x="497" y="690" type="line" smooth="yes"/>
      <point x="512" y="726"/>
      <point x="550" y="730"/>
      <point x="577" y="698" type="curve" smooth="yes"/>
      <point x="641" y="622" type="line" smooth="yes"/>
      <point x="681" y="574"/>
      <point x="718" y="548"/>
      <point x="768" y="548" type="curve" smooth="yes"/>
      <point x="828" y="548"/>
      <point x="871" y="590"/>
      <point x="871" y="649" type="curve" smooth="yes"/>
      <point x="871" y="726"/>
      <point x="807" y="760"/>
      <point x="735" y="760" type="curve" smooth="yes"/>
      <point x="291" y="760" type="line" smooth="yes"/>
      <point x="125" y="760"/>
      <point x="15" y="660"/>
    </contour>
  </outline>
</glyph>
<glyph name="Lje-cy" format="2">
  <advance width="1345"/>
  <unicode hex="0409"/>
  <unicode hex="0459"/>
  <outline>
    <contour>
      <point x="15" y="208" type="line" smooth="yes"/>
      <point x="15" y="47"/>
      <point x="92" y="-15"/>
      <point x="221" y="-15" type="curve" smooth="yes"/>
      <point x="361" y="-15"/>
      <point x="411" y="96"/>
      <point x="347" y="228" type="curve" smooth="yes"/>
      <point x="311" y="302" type="line" smooth="yes"/>
      <point x="287" y="352"/>
      <point x="284" y="372"/>
      <point x="325" y="413" type="curve" smooth="yes"/>
      <point x="593" y="686" type="line" smooth="yes"/>
      <point x="628" y="721"/>
      <point x="657" y="703"/>
      <point x="657" y="655" type="curve" smooth="yes"/>
      <point x="657" y="211" type="line" smooth="yes"/>
      <point x="657" y="60"/>
      <point x="714" y="-15"/>
      <point x="959" y="-15" type="curve" smooth="yes"/>
      <point x="1190" y="-15"/>
      <point x="1315" y="99"/>
      <point x="1315" y="275" type="curve" smooth="yes"/>
      <point x="1315" y="443"/>
      <point x="1226" y="551"/>
      <point x="1111" y="551" type="curve" smooth="yes"/>
      <point x="1062" y="551"/>
      <point x="1021" y="533"/>
      <point x="939" y="499" type="curve" smooth="yes"/>
      <point x="772" y="430" type="line" smooth="yes"/>
      <point x="718" y="408"/>
      <point x="685" y="469"/>
      <point x="734" y="503" type="curve" smooth="yes"/>
      <point x="815" y="559" type="line" smooth="yes"/>
      <point x="857" y="588"/>
      <point x="883" y="629"/>
      <point x="883" y="670" type="curve" smooth="yes"/>
      <point x="883" y="717"/>
      <point x="843" y="760"/>
      <point x="763" y="760" type="curve" smooth="yes"/>
      <point x="524" y="760" type="line" smooth="yes"/>
      <point x="410" y="760"/>
      <point x="374" y="704"/>
      <point x="327" y="592" type="curve" smooth="yes"/>
      <point x="142" y="156" type="line" smooth="yes"/>
      <point x="115" y="93"/>
      <point x="38" y="121"/>
      <point x="69" y="189" type="curve" smooth="yes"/>
      <point x="130" y="325" type="line" smooth="yes"/>
      <point x="165" y="402"/>
      <point x="125" y="432"/>
      <point x="101" y="433" type="curve" smooth="yes"/>
      <point x="66" y="434"/>
      <point x="15" y="403"/>
      <point x="15" y="211" type="curve" smooth="yes"/>
    </contour>
    <contour>
      <point x="735" y="169" type="curve" smooth="yes"/>
      <point x="931" y="420" type="line" smooth="yes"/>
      <point x="966" y="465"/>
      <point x="988" y="473"/>
      <point x="1039" y="438" type="curve" smooth="yes"/>
      <point x="1239" y="298" type="line" smooth="yes"/>
      <point x="1290" y="263"/>
      <point x="1284" y="209"/>
      <point x="1223" y="195" type="curve" smooth="yes"/>
      <point x="788" y="94" type="line" smooth="yes"/>
      <point x="729" y="80"/>
      <point x="701" y="126"/>
    </contour>
  </outline>
</glyph>
<glyph name="Ge-cy" format="2">
  <advance width="665"/>
  <unicode hex="0413"/>
  <unicode hex="0433"/>
  <outline>
    <contour>
      <point x="70" y="141" type="line" smooth="yes"/>
      <point x="70" y="20"/>
      <point x="114" y="-15"/>
      <point x="192" y="-15" type="curve" smooth="yes"/>
      <point x="276" y="-15"/>
      <point x="341" y="55"/>
      <point x="294" y="187" type="curve" smooth="yes"/>
      <point x="140" y="616" type="line" smooth="yes"/>
      <point x="119" y="674"/>
      <point x="169" y="721"/>
      <point x="225" y="694" type="curve" smooth="yes"/>
      <point x="565" y="533" type="line" smooth="yes"/>
      <point x="592" y="520"/>
      <point x="594" y="489"/>
      <point x="565" y="470" type="curve" smooth="yes"/>
      <point x="477" y="411" type="line" smooth="yes"/>
      <point x="415" y="370"/>
      <point x="440" y="285"/>
      <point x="510" y="285" type="curve" smooth="yes"/>
      <point x="570" y="285"/>
      <point x="602" y="317"/>
      <point x="616" y="421" type="curve" smooth="yes"/>
      <point x="637" y="574" type="line" smooth="yes"/>
      <point x="654" y="696"/>
      <point x="615" y="760"/>
      <point x="499" y="760" type="curve" smooth="yes"/>
      <point x="242" y="760" type="line" smooth="yes"/>
      <point x="106" y="760"/>
      <point x="71" y="696"/>
      <point x="71" y="577" type="curve" smooth="yes"/>
    </contour>
  </outline>
</glyph>
<glyph name="El-cy" format="2">
  <advance width="912"/>
  <unicode hex="041B"/>
  <unicode hex="043B"/>
  <outline>
    <contour>
      <point x="15" y="208" type="line" smooth="yes"/>
      <point x="15" y="47"/>
      <point x="92" y="-15"/>
      <point x="205" y="-15" type="curve" smooth="yes"/>
      <point x="332" y="-15"/>
      <point x="387" y="70"/>
      <point x="372" y="190" type="curve" smooth="yes"/>
      <point x="343" y="422" type="line" smooth="yes"/>
      <point x="335" y="484"/>
      <point x="341" y="501"/>
      <point x="388" y="527" type="curve" smooth="yes"/>
      <point x="669" y="680" type="line" smooth="yes"/>
      <point x="763" y="731"/>
      <point x="813" y="609"/>
      <point x="746" y="571" type="curve" smooth="yes"/>
      <point x="522" y="445" type="line" smooth="yes"/>
      <point x="466" y="413"/>
      <point x="488" y="327"/>
      <point x="558" y="331" type="curve" smooth="yes"/>
      <point x="746" y="343" type="line" smooth="yes"/>
      <point x="786" y="346"/>
      <point x="803" y="305"/>
      <point x="770" y="278" type="curve" smooth="yes"/>
      <point x="672" y="199" type="line" smooth="yes"/>
      <point x="569" y="116"/>
      <point x="614" y="-15"/>
      <point x="729" y="-15" type="curve" smooth="yes"/>
      <point x="808" y="-15"/>
      <point x="855" y="30"/>
      <point x="852" y="141" type="curve" smooth="yes"/>
      <point x="840" y="577" type="line" smooth="yes"/>
      <point x="837" y="684"/>
      <point x="806" y="760"/>
      <point x="688" y="760" type="curve" smooth="yes"/>
      <point x="524" y="760" type="line" smooth="yes"/>
      <point x="410" y="760"/>
      <point x="374" y="704"/>
      <point x="327" y="592" type="curve" smooth="yes"/>
      <point x="142" y="156" type="line" smooth="yes"/>
      <point x="115" y="93"/>
      <point x="39" y="123"/>
      <point x="69" y="189" type="curve" smooth="yes"/>
      <point x="130" y="325" type="line" smooth="yes"/>
      <point x="165" y="403"/>
      <point x="125" y="432"/>
      <point x="99" y="433" type="curve" smooth="yes"/>
      <point x="66" y="435"/>
      <point x="15" y="403"/>
      <point x="15" y="211" type="curve" smooth="yes"/>
    </contour>
  </outline>
</glyph>
<glyph name="Pe-cy" format="2">
  <advance width="821"/>
  <unicode hex="041F"/>
  <unicode hex="043F"/>
  <outline>
    <contour>
      <point x="61" y="141" type="line" smooth="yes"/>
      <point x="54" y="20"/>
      <point x="105" y="-15"/>
      <point x="183" y="-15" type="curve" smooth="yes"/>
      <point x="288" y="-15"/>
      <point x="345" y="114"/>
      <point x="242" y="199" type="curve" smooth="yes"/>
      <point x="144" y="280" type="line" smooth="yes"/>
      <point x="111" y="307"/>
      <point x="130" y="343"/>
      <point x="170" y="340" type="curve" smooth="yes"/>
      <point x="390" y="326" type="line" smooth="yes"/>
      <point x="462" y="321"/>
      <point x="483" y="406"/>
      <point x="425" y="438" type="curve" smooth="yes"/>
      <point x="214" y="556" type="line" smooth="yes"/>
      <point x="119" y="609"/>
      <point x="185" y="728"/>
      <point x="284" y="688" type="curve" smooth="yes"/>
      <point x="628" y="550" type="line" smooth="yes"/>
      <point x="685" y="527"/>
      <point x="702" y="503"/>
      <point x="702" y="471" type="curve" smooth="yes"/>
      <point x="702" y="448"/>
      <point x="696" y="427"/>
      <point x="666" y="391" type="curve" smooth="yes"/>
      <point x="545" y="243" type="line" smooth="yes"/>
      <point x="495" y="182"/>
      <point x="477" y="141"/>
      <point x="477" y="88" type="curve" smooth="yes"/>
      <point x="477" y="28"/>
      <point x="518" y="-15"/>
      <point x="589" y="-15" type="curve" smooth="yes"/>
      <point x="684" y="-15"/>
      <point x="727" y="50"/>
      <point x="734" y="158" type="curve" smooth="yes"/>
      <point x="760" y="589" type="line" smooth="yes"/>
      <point x="767" y="703"/>
      <point x="710" y="760"/>
      <point x="623" y="760" type="curve" smooth="yes"/>
      <point x="259" y="760" type="line" smooth="yes"/>
      <point x="141" y="760"/>
      <point x="95" y="684"/>
      <point x="88" y="577" type="curve" smooth="yes"/>
    </contour>
  </outline>
</glyph>
<glyph name="Sha-cy" format="2">
  <advance width="1125"/>
  <unicode hex="0428"/>
  <outline>
    <contour>
      <point x="62" y="158" type="line" smooth="yes"/>
      <point x="56" y="46"/>
      <point x="111" y="-15"/>
      <point x="201" y="-15" type="curve" smooth="yes"/>
      <point x="295" y="-15"/>
      <point x="361" y="26"/>
      <point x="376" y="156" type="curve" smooth="yes"/>
      <point x="400" y="360" type="line" smooth="yes"/>
      <point x="408" y="430"/>
      <point x="489" y="431"/>
      <point x="493" y="360" type="curve" smooth="yes"/>
      <point x="509" y="102" type="line" smooth="yes"/>
      <point x="514" y="23"/>
      <point x="547" y="-15"/>
      <point x="605" y="-15" type="curve" smooth="yes"/>
      <point x="659" y="-15"/>
      <point x="692" y="19"/>
      <point x="717" y="69" type="curve" smooth="yes"/>
      <point x="786" y="206" type="line" smooth="yes"/>
      <point x="807" y="247"/>
      <point x="847" y="246"/>
      <point x="856" y="199" type="curve" smooth="yes"/>
      <point x="876" y="95" type="line" smooth="yes"/>
      <point x="892" y="14"/>
      <point x="932" y="-15"/>
      <point x="995" y="-15" type="curve" smooth="yes"/>
      <point x="1061" y="-15"/>
      <point x="1100" y="26"/>
      <point x="1100" y="89" type="curve" smooth="yes"/>
      <point x="1100" y="158"/>
      <point x="1060" y="189"/>
      <point x="992" y="218" type="curve" smooth="yes"/>
      <point x="918" y="250" type="line" smooth="yes"/>
      <point x="896" y="260"/>
      <point x="890" y="279"/>
      <point x="905" y="304" type="curve" smooth="yes"/>
      <point x="1066" y="572" type="line" smooth="yes"/>
      <point x="1132" y="682"/>
      <point x="1077" y="775"/>
      <point x="983" y="775" type="curve" smooth="yes"/>
      <point x="908" y="775"/>
      <point x="858" y="724"/>
      <point x="858" y="629" type="curve" smooth="yes"/>
      <point x="859" y="375" type="line" smooth="yes"/>
      <point x="859" y="331"/>
      <point x="846" y="305"/>
      <point x="804" y="287" type="curve" smooth="yes"/>
      <point x="614" y="204" type="line" smooth="yes"/>
      <point x="580" y="189"/>
      <point x="550" y="213"/>
      <point x="550" y="241" type="curve" smooth="yes"/>
      <point x="550" y="263"/>
      <point x="551" y="273"/>
      <point x="569" y="314" type="curve" smooth="yes"/>
      <point x="694" y="605" type="line" smooth="yes"/>
      <point x="733" y="696"/>
      <point x="701" y="775"/>
      <point x="627" y="775" type="curve" smooth="yes"/>
      <point x="582" y="775"/>
      <point x="552" y="755"/>
      <point x="516" y="690" type="curve" smooth="yes"/>
      <point x="263" y="231" type="line" smooth="yes"/>
      <point x="211" y="137"/>
      <point x="76" y="189"/>
      <point x="135" y="296" type="curve" smooth="yes"/>
      <point x="258" y="520" type="line" smooth="yes"/>
      <point x="292" y="582"/>
      <point x="311" y="628"/>
      <point x="311" y="671" type="curve" smooth="yes"/>
      <point x="311" y="732"/>
      <point x="271" y="775"/>
      <point x="208" y="775" type="curve" smooth="yes"/>
      <point x="133" y="775"/>
      <point x="93" y="735"/>
      <point x="88" y="640" type="curve" smooth="yes"/>
    </contour>
  </outline>
</glyph>
<glyph name="Yeru-cy" format="2">
  <advance width="1130"/>
  <unicode hex="042B"/>
  <unicode hex="044B"/>
  <outline>
    <contour>
      <point x="54" y="376" type="line" smooth="yes"/>
      <point x="25" y="142"/>
      <point x="174" y="-15"/>
      <point x="443" y="-15" type="curve" smooth="yes"/>
      <point x="632" y="-15"/>
      <point x="769" y="86"/>
      <point x="769" y="236" type="curve" smooth="yes"/>
      <point x="769" y="299"/>
      <point x="745" y="381"/>
      <point x="612" y="399" type="curve" smooth="yes"/>
      <point x="531" y="410" type="line" smooth="yes"/>
      <point x="504" y="414"/>
      <point x="492" y="427"/>
      <point x="492" y="445" type="curve" smooth="yes"/>
      <point x="492" y="463"/>
      <point x="506" y="476"/>
      <point x="536" y="481" type="curve" smooth="yes"/>
      <point x="986" y="557" type="line" smooth="yes"/>
      <point x="1023" y="563"/>
      <point x="1036" y="537"/>
      <point x="1017" y="502" type="curve" smooth="yes"/>
      <point x="842" y="181" type="line" smooth="yes"/>
      <point x="783" y="73"/>
      <point x="827" y="-15"/>
      <point x="921" y="-15" type="curve" smooth="yes"/>
      <point x="1019" y="-15"/>
      <point x="1039" y="56"/>
      <point x="1043" y="129" type="curve" smooth="yes"/>
      <point x="1069" y="635" type="line" smooth="yes"/>
      <point x="1077" y="784"/>
      <point x="950" y="806"/>
      <point x="848" y="740" type="curve" smooth="yes"/>
      <point x="219" y="329" type="line" smooth="yes"/>
      <point x="189" y="310"/>
      <point x="179" y="292"/>
      <point x="187" y="266" type="curve" smooth="yes"/>
      <point x="193" y="247"/>
      <point x="216" y="234"/>
      <point x="253" y="242" type="curve" smooth="yes"/>
      <point x="573" y="313" type="line" smooth="yes"/>
      <point x="657" y="332"/>
      <point x="706" y="305"/>
      <point x="706" y="244" type="curve" smooth="yes"/>
      <point x="706" y="204"/>
      <point x="667" y="167"/>
      <point x="594" y="166" type="curve" smooth="yes"/>
      <point x="239" y="163" type="line" smooth="yes"/>
      <point x="177" y="162"/>
      <point x="136" y="190"/>
      <point x="119" y="233" type="curve" smooth="yes"/>
      <point x="105" y="268"/>
      <point x="105" y="311"/>
      <point x="135" y="350" type="curve" smooth="yes"/>
      <point x="288" y="550" type="line" smooth="yes"/>
      <point x="374" y="662"/>
      <point x="326" y="760"/>
      <point x="231" y="760" type="curve" smooth="yes"/>
      <point x="150" y="760"/>
      <point x="97" y="717"/>
      <point x="79" y="575" type="curve" smooth="yes"/>
    </contour>
  </outline>
</glyph>
<glyph name="Softsign-cy" format="2">
  <advance width="806"/>
  <unicode hex="042C"/>
  <unicode hex="044C"/>
  <outline>
    <contour>
      <point x="275" y="0" type="curve" smooth="yes"/>
      <point x="447" y="0" type="line" smooth="yes"/>
      <point x="653" y="0"/>
      <point x="775" y="147"/>
      <point x="776" y="333" type="curve" smooth="yes"/>
      <point x="777" y="485"/>
      <point x="684" y="593"/>
      <point x="582" y="593" type="curve" smooth="yes"/>
      <point x="498" y="593"/>
      <point x="432" y="537"/>
      <point x="359" y="451" type="curve" smooth="yes"/>
      <point x="241" y="311" type="line" smooth="yes"/>
      <point x="214" y="279"/>
      <point x="165" y="268"/>
      <point x="134" y="302" type="curve" smooth="yes"/>
      <point x="107" y="332"/>
      <point x="119" y="374"/>
      <point x="144" y="403" type="curve" smooth="yes"/>
      <point x="263" y="544" type="line" smooth="yes"/>
      <point x="304" y="593"/>
      <point x="327" y="629"/>
      <point x="327" y="673" type="curve" smooth="yes"/>
      <point x="327" y="730"/>
      <point x="290" y="775"/>
      <point x="226" y="775" type="curve" smooth="yes"/>
      <point x="144" y="775"/>
      <point x="93" y="732"/>
      <point x="86" y="601" type="curve" smooth="yes"/>
      <point x="65" y="206" type="line" smooth="yes"/>
      <point x="59" y="88"/>
      <point x="134" y="0"/>
    </contour>
    <contour>
      <point x="212" y="207" type="curve" smooth="yes"/>
      <point x="212" y="224"/>
      <point x="222" y="239"/>
      <point x="247" y="252" type="curve" smooth="yes"/>
      <point x="621" y="451" type="line" smooth="yes"/>
      <point x="696" y="491"/>
      <point x="752" y="425"/>
      <point x="704" y="360" type="curve" smooth="yes"/>
      <point x="527" y="123" type="line" smooth="yes"/>
      <point x="489" y="72"/>
      <point x="465" y="64"/>
      <point x="411" y="89" type="curve" smooth="yes"/>
      <point x="254" y="162" type="line" smooth="yes"/>
      <point x="228" y="174"/>
      <point x="212" y="186"/>
    </contour>
  </outline>
</glyph>
<glyph name="Iu-cy" format="2">
  <advance width="1107"/>
  <unicode hex="042E"/>
  <unicode hex="044E"/>
  <outline>
    <contour>
      <point x="61" y="115" type="line" smooth="yes"/>
      <point x="53" y="20"/>
      <point x="105" y="-15"/>
      <point x="169" y="-15" type="curve" smooth="yes"/>
      <point x="244" y="-15"/>
      <point x="285" y="30"/>
      <point x="285" y="88" type="curve" smooth="yes"/>
      <point x="285" y="120"/>
      <point x="265" y="156"/>
      <point x="231" y="191" type="curve" smooth="yes"/>
      <point x="205" y="217"/>
      <point x="173" y="236"/>
      <point x="173" y="260" type="curve" smooth="yes"/>
      <point x="173" y="275"/>
      <point x="183" y="285"/>
      <point x="225" y="307" type="curve" smooth="yes"/>
      <point x="289" y="341" type="line" smooth="yes"/>
      <point x="326" y="361"/>
      <point x="351" y="346"/>
      <point x="360" y="311" type="curve" smooth="yes"/>
      <point x="379" y="241" type="line" smooth="yes"/>
      <point x="433" y="43"/>
      <point x="535" y="-15"/>
      <point x="703" y="-15" type="curve" smooth="yes"/>
      <point x="910" y="-15"/>
      <point x="1047" y="150"/>
      <point x="1047" y="413" type="curve" smooth="yes"/>
      <point x="1047" y="644"/>
      <point x="925" y="775"/>
      <point x="681" y="775" type="curve" smooth="yes"/>
      <point x="484" y="775"/>
      <point x="384" y="643"/>
      <point x="384" y="474" type="curve" smooth="yes"/>
      <point x="384" y="442"/>
      <point x="369" y="423"/>
      <point x="340" y="423" type="curve" smooth="yes"/>
      <point x="200" y="423" type="line" smooth="yes"/>
      <point x="166" y="423"/>
      <point x="142" y="437"/>
      <point x="142" y="464" type="curve" smooth="yes"/>
      <point x="142" y="483"/>
      <point x="147" y="498"/>
      <point x="177" y="515" type="curve" smooth="yes"/>
      <point x="266" y="565" type="line" smooth="yes"/>
      <point x="316" y="593"/>
      <point x="345" y="639"/>
      <point x="345" y="684" type="curve" smooth="yes"/>
      <point x="345" y="738"/>
      <point x="304" y="775"/>
      <point x="246" y="775" type="curve" smooth="yes"/>
      <point x="139" y="775"/>
      <point x="109" y="680"/>
      <point x="103" y="608" type="curve" smooth="yes"/>
    </contour>
    <contour>
      <point x="435" y="293" type="line" smooth="yes"/>
      <point x="376" y="347"/>
      <point x="398" y="409"/>
      <point x="451" y="441" type="curve" smooth="yes"/>
      <point x="805" y="658" type="line" smooth="yes"/>
      <point x="886" y="707"/>
      <point x="952" y="641"/>
      <point x="927" y="557" type="curve" smooth="yes"/>
      <point x="794" y="103" type="line" smooth="yes"/>
      <point x="777" y="46"/>
      <point x="719" y="31"/>
      <point x="671" y="76" type="curve" smooth="yes"/>
    </contour>
  </outline>
</glyph>
<glyph name="Ia-cy" format="2">
  <advance width="863"/>
  <unicode hex="042F"/>
  <unicode hex="044F"/>
  <anchor x="460" y="0" name="bottom"/>
  <anchor x="361" y="760" name="top"/>
  <outline>
    <contour>
      <point x="45" y="173"/>
      <point x="45" y="111" type="curve" smooth="yes"/>
      <point x="45" y="48"/>
      <point x="79" y="-15"/>
      <point x="181" y="-15" type="curve" smooth="yes"/>
      <point x="229" y="-15"/>
      <point x="279" y="5"/>
      <point x="337" y="71" type="curve" smooth="yes"/>
      <point x="605" y="374" type="line" smooth="yes"/>
      <point x="632" y="405"/>
      <point x="639" y="422"/>
      <point x="639" y="439" type="curve" smooth="yes"/>
      <point x="639" y="463"/>
      <point x="617" y="476"/>
      <point x="572" y="469" type="curve" smooth="yes"/>
      <point x="264" y="419" type="line" smooth="yes"/>
      <point x="159" y="402"/>
      <point x="121" y="454"/>
      <point x="121" y="508" type="curve" smooth="yes"/>
      <point x="121" y="557"/>
      <point x="161" y="595"/>
      <point x="233" y="595" type="curve" smooth="yes"/>
      <point x="582" y="595" type="line" smooth="yes"/>
      <point x="692" y="595"/>
      <point x="736" y="547"/>
      <point x="736" y="478" type="curve" smooth="yes"/>
      <point x="736" y="448"/>
      <point x="729" y="419"/>
      <point x="707" y="384" type="curve" smooth="yes"/>
      <point x="573" y="175" type="line" smooth="yes"/>
      <point x="506" y="71"/>
      <point x="550" y="-15"/>
      <point x="644" y="-15" type="curve" smooth="yes"/>
      <point x="736" y="-15"/>
      <point x="803" y="47"/>
      <point x="803" y="358" type="curve" smooth="yes"/>
      <point x="803" y="653"/>
      <point x="693" y="775"/>
      <point x="474" y="775" type="curve" smooth="yes"/>
      <point x="218" y="775"/>
      <point x="56" y="625"/>
      <point x="56" y="508" type="curve" smooth="yes"/>
      <point x="56" y="437"/>
      <point x="93" y="383"/>
      <point x="221" y="342" type="curve" smooth="yes"/>
      <point x="378" y="292" type="line" smooth="yes"/>
      <point x="403" y="284"/>
      <point x="421" y="271"/>
      <point x="421" y="250" type="curve" smooth="yes"/>
      <point x="421" y="230"/>
      <point x="408" y="217"/>
      <point x="367" y="217" type="curve" smooth="yes"/>
      <point x="162" y="215" type="line" smooth="yes"/>
      <point x="95" y="214"/>
    </contour>
  </outline>
</glyph>
<glyph name="tse-cy" format="2">
  <advance width="959"/>
  <unicode hex="0446"/>
  <outline>
    <contour>
      <point x="34" y="433" type="curve" smooth="yes"/>
      <point x="34" y="397"/>
      <point x="58" y="374"/>
      <point x="84" y="374" type="curve" smooth="yes"/>
      <point x="136" y="374"/>
      <point x="160" y="409"/>
      <point x="141" y="468" type="curve" smooth="yes"/>
      <point x="132" y="496"/>
      <point x="100" y="570"/>
      <point x="100" y="605" type="curve" smooth="yes"/>
      <point x="100" y="638"/>
      <point x="124" y="651"/>
      <point x="145" y="651" type="curve" smooth="yes"/>
      <point x="164" y="651"/>
      <point x="182" y="637"/>
      <point x="199" y="605" type="curve" smooth="yes"/>
      <point x="326" y="369" type="line" smooth="yes"/>
      <point x="342" y="339"/>
      <point x="347" y="325"/>
      <point x="347" y="303" type="curve" smooth="yes"/>
      <point x="347" y="287"/>
      <point x="341" y="271"/>
      <point x="326" y="258" type="curve" smooth="yes"/>
      <point x="236" y="180" type="line" smooth="yes"/>
      <point x="197" y="146"/>
      <point x="176" y="113"/>
      <point x="176" y="73" type="curve" smooth="yes"/>
      <point x="176" y="19"/>
      <point x="211" y="-15"/>
      <point x="265" y="-15" type="curve" smooth="yes"/>
      <point x="321" y="-15"/>
      <point x="357" y="7"/>
      <point x="397" y="52" type="curve" smooth="yes"/>
      <point x="486" y="152" type="line" smooth="yes"/>
      <point x="509" y="178"/>
      <point x="543" y="167"/>
      <point x="543" y="133" type="curve" smooth="yes"/>
      <point x="543" y="111" type="line" smooth="yes"/>
      <point x="543" y="32"/>
      <point x="587" y="0"/>
      <point x="645" y="0" type="curve" smooth="yes"/>
      <point x="687" y="0"/>
      <point x="712" y="13"/>
      <point x="742" y="29" type="curve" smooth="yes"/>
      <point x="828" y="75" type="line" smooth="yes"/>
      <point x="877" y="101"/>
      <point x="909" y="34"/>
      <point x="870" y="12" type="curve" smooth="yes"/>
      <point x="778" y="-40" type="line" smooth="yes"/>
      <point x="694" y="-88"/>
      <point x="722" y="-200"/>
      <point x="809" y="-200" type="curve" smooth="yes"/>
      <point x="876" y="-200"/>
      <point x="929" y="-164"/>
      <point x="929" y="-47" type="curve" smooth="yes"/>
      <point x="929" y="202" type="line" smooth="yes"/>
      <point x="929" y="276"/>
      <point x="893" y="317"/>
      <point x="851" y="317" type="curve" smooth="yes"/>
      <point x="813" y="317"/>
      <point x="781" y="292"/>
      <point x="755" y="237" type="curve" smooth="yes"/>
      <point x="689" y="98" type="line" smooth="yes"/>
      <point x="660" y="37"/>
      <point x="590" y="73"/>
      <point x="617" y="130" type="curve" smooth="yes"/>
      <point x="806" y="524" type="line" smooth="yes"/>
      <point x="826" y="566"/>
      <point x="843" y="614"/>
      <point x="843" y="656" type="curve" smooth="yes"/>
      <point x="843" y="730"/>
      <point x="805" y="775"/>
      <point x="741" y="775" type="curve" smooth="yes"/>
      <point x="647" y="775"/>
      <point x="613" y="718"/>
      <point x="608" y="578" type="curve" smooth="yes"/>
      <point x="597" y="272" type="line" smooth="yes"/>
      <point x="595" y="220"/>
      <point x="578" y="199"/>
      <point x="542" y="199" type="curve" smooth="yes"/>
      <point x="446" y="199" type="line" smooth="yes"/>
      <point x="404" y="199"/>
      <point x="388" y="226"/>
      <point x="388" y="272" type="curve" smooth="yes"/>
      <point x="388" y="574" type="line" smooth="yes"/>
      <point x="388" y="736"/>
      <point x="346" y="775"/>
      <point x="249" y="775" type="curve" smooth="yes"/>
      <point x="75" y="775"/>
      <point x="34" y="652"/>
    </contour>
  </outline>
</glyph>
<glyph name="shcha-cy" format="2">
  <advance width="1373"/>
  <unicode hex="0449"/>
  <outline>
    <contour>
      <point x="34" y="433" type="curve" smooth="yes"/>
      <point x="34" y="397"/>
      <point x="58" y="374"/>
      <point x="84" y="374" type="curve" smooth="yes"/>
      <point x="136" y="374"/>
      <point x="160" y="409"/>
      <point x="141" y="468" type="curve" smooth="yes"/>
      <point x="132" y="496"/>
      <point x="99" y="560"/>
      <point x="100" y="595" type="curve" smooth="yes"/>
      <point x="102" y="648"/>
      <point x="164" y="668"/>
      <point x="193" y="622" type="curve" smooth="yes"/>
      <point x="333" y="399" type="line" smooth="yes"/>
      <point x="369" y="341"/>
      <point x="371" y="313"/>
      <point x="339" y="275" type="curve" smooth="yes"/>
      <point x="245" y="165" type="line" smooth="yes"/>
      <point x="146" y="49"/>
      <point x="187" y="-15"/>
      <point x="255" y="-15" type="curve" smooth="yes"/>
      <point x="382" y="-15"/>
      <point x="534" y="134"/>
      <point x="603" y="207" type="curve" smooth="yes"/>
      <point x="681" y="290" type="line" smooth="yes"/>
      <point x="710" y="320"/>
      <point x="733" y="330"/>
      <point x="755" y="309" type="curve" smooth="yes"/>
      <point x="778" y="287"/>
      <point x="760" y="261"/>
      <point x="731" y="228" type="curve" smooth="yes"/>
      <point x="667" y="155" type="line" smooth="yes"/>
      <point x="585" y="61"/>
      <point x="616" y="-15"/>
      <point x="696" y="-15" type="curve" smooth="yes"/>
      <point x="765" y="-15"/>
      <point x="808" y="24"/>
      <point x="856" y="90" type="curve" smooth="yes"/>
      <point x="904" y="155" type="line" smooth="yes"/>
      <point x="923" y="181"/>
      <point x="957" y="171"/>
      <point x="957" y="146" type="curve" smooth="yes"/>
      <point x="957" y="111" type="line" smooth="yes"/>
      <point x="957" y="32"/>
      <point x="1001" y="0"/>
      <point x="1059" y="0" type="curve" smooth="yes"/>
      <point x="1101" y="0"/>
      <point x="1126" y="13"/>
      <point x="1156" y="29" type="curve" smooth="yes"/>
      <point x="1242" y="75" type="line" smooth="yes"/>
      <point x="1291" y="101"/>
      <point x="1323" y="34"/>
      <point x="1284" y="12" type="curve" smooth="yes"/>
      <point x="1192" y="-40" type="line" smooth="yes"/>
      <point x="1108" y="-88"/>
      <point x="1136" y="-200"/>
      <point x="1223" y="-200" type="curve" smooth="yes"/>
      <point x="1290" y="-200"/>
      <point x="1343" y="-164"/>
      <point x="1343" y="-47" type="curve" smooth="yes"/>
      <point x="1343" y="202" type="line" smooth="yes"/>
      <point x="1343" y="276"/>
      <point x="1307" y="317"/>
      <point x="1264" y="317" type="curve" smooth="yes"/>
      <point x="1227" y="317"/>
      <point x="1195" y="292"/>
      <point x="1169" y="237" type="curve" smooth="yes"/>
      <point x="1103" y="98" type="line" smooth="yes"/>
      <point x="1074" y="37"/>
      <point x="1004" y="73"/>
      <point x="1031" y="130" type="curve" smooth="yes"/>
      <point x="1220" y="524" type="line" smooth="yes"/>
      <point x="1240" y="566"/>
      <point x="1257" y="614"/>
      <point x="1257" y="656" type="curve" smooth="yes"/>
      <point x="1257" y="730"/>
      <point x="1219" y="775"/>
      <point x="1155" y="775" type="curve" smooth="yes"/>
      <point x="1061" y="775"/>
      <point x="1027" y="718"/>
      <point x="1022" y="578" type="curve" smooth="yes"/>
      <point x="1011" y="292" type="line" smooth="yes"/>
      <point x="1009" y="240"/>
      <point x="992" y="219"/>
      <point x="956" y="219" type="curve" smooth="yes"/>
      <point x="890" y="219" type="line" smooth="yes"/>
      <point x="850" y="219"/>
      <point x="828" y="240"/>
      <point x="825" y="292" type="curve" smooth="yes"/>
      <point x="809" y="606" type="line" smooth="yes"/>
      <point x="803" y="728"/>
      <point x="775" y="775"/>
      <point x="709" y="775" type="curve" smooth="yes"/>
      <point x="649" y="775"/>
      <point x="613" y="728"/>
      <point x="606" y="624" type="curve" smooth="yes"/>
      <point x="583" y="284" type="line" smooth="yes"/>
      <point x="580" y="234"/>
      <point x="551" y="218"/>
      <point x="521" y="218" type="curve" smooth="yes"/>
      <point x="463" y="218" type="line" smooth="yes"/>
      <point x="432" y="218"/>
      <point x="414" y="235"/>
      <point x="409" y="291" type="curve" smooth="yes"/>
      <point x="386" y="574" type="line" smooth="yes"/>
      <point x="373" y="736"/>
      <point x="346" y="775"/>
      <point x="249" y="775" type="curve" smooth="yes"/>
      <point x="75" y="775"/>
      <point x="34" y="652"/>
    </contour>
  </outline>
</glyph>
<glyph name="Gheupturn-cy" format="2">
  <advance width="581"/>
  <unicode hex="0490"/>
  <unicode hex="0491"/>
  <outline>
    <contour>
      <point x="65" y="141" type="line" smooth="yes"/>
      <point x="65" y="20"/>
      <point x="111" y="-15"/>
      <point x="191" y="-15" type="curve" smooth="yes"/>
      <point x="273" y="-15"/>
      <point x="335" y="61"/>
      <point x="289" y="187" type="curve" smooth="yes"/>
      <point x="119" y="652" type="line" smooth="yes"/>
      <point x="96" y="715"/>
      <point x="173" y="756"/>
      <point x="215" y="701" type="curve" smooth="yes"/>
      <point x="336" y="542" type="line" smooth="yes"/>
      <point x="422" y="429"/>
      <point x="577" y="483"/>
      <point x="560" y="619" type="curve" smooth="yes"/>
      <point x="537" y="800" type="line" smooth="yes"/>
      <point x="522" y="917"/>
      <point x="484" y="955"/>
      <point x="411" y="955" type="curve" smooth="yes"/>
      <point x="315" y="955"/>
      <point x="300" y="842"/>
      <point x="380" y="809" type="curve" smooth="yes"/>
      <point x="480" y="768" type="line" smooth="yes"/>
      <point x="530" y="748"/>
      <point x="504" y="678"/>
      <point x="454" y="696" type="curve" smooth="yes"/>
      <point x="281" y="758" type="line" smooth="yes"/>
      <point x="161" y="801"/>
      <point x="66" y="760"/>
      <point x="66" y="636" type="curve" smooth="yes"/>
    </contour>
  </outline>
</glyph>
<glyph name="endash" format="2">
  <advance width="776"/>
  <unicode hex="2013"/>
  <anchor x="407" y="378" name="_center"/>
  <outline>
    <contour>
      <point x="64" y="343" type="curve" smooth="yes"/>
      <point x="663" y="336" type="line" smooth="yes"/>
      <point x="724" y="335"/>
      <point x="743" y="378"/>
      <point x="733" y="418" type="curve" smooth="yes"/>
      <point x="724" y="455"/>
      <point x="697" y="466"/>
      <point x="624" y="456" type="curve" smooth="yes"/>
      <point x="66" y="383" type="line" smooth="yes"/>
      <point x="30" y="378"/>
      <point x="38" y="343"/>
    </contour>
  </outline>
</glyph>
<glyph name="quotedblright" format="2">
  <advance width="549"/>
  <unicode hex="201D"/>
  <outline>
    <contour>
      <point x="19" y="461" type="line" smooth="yes"/>
      <point x="15" y="435"/>
      <point x="40" y="421"/>
      <point x="54" y="436" type="curve" smooth="yes"/>
      <point x="228" y="622" type="line" smooth="yes"/>
      <point x="238" y="633"/>
      <point x="247" y="643"/>
      <point x="252" y="662" type="curve" smooth="yes"/>
      <point x="262" y="698"/>
      <point x="252" y="744"/>
      <point x="193" y="765" type="curve" smooth="yes"/>
      <point x="137" y="785"/>
      <point x="65" y="782"/>
      <point x="55" y="712" type="curve" smooth="yes"/>
    </contour>
    <component base="comma" xOffset="261" yOffset="620"/>
  </outline>
</glyph>
<glyph name="guilsinglleft" format="2">
  <advance width="600"/>
  <unicode hex="2039"/>
  <outline>
    <contour>
      <point x="196" y="358" type="curve" smooth="yes"/>
      <point x="196" y="426"/>
      <point x="204" y="455"/>
      <point x="233" y="470" type="curve" smooth="yes"/>
      <point x="259" y="483"/>
      <point x="284" y="484"/>
      <point x="318" y="452" type="curve" smooth="yes"/>
      <point x="350" y="422" type="line" smooth="yes"/>
      <point x="382" y="392"/>
      <point x="415" y="380"/>
      <point x="433" y="380" type="curve" smooth="yes"/>
      <point x="483" y="380"/>
      <point x="526" y="414"/>
      <point x="526" y="493" type="curve" smooth="yes"/>
      <point x="526" y="566"/>
      <point x="472" y="598"/>
      <point x="425" y="598" type="curve" smooth="yes"/>
      <point x="387" y="598"/>
      <point x="355" y="590"/>
      <point x="303" y="560" type="curve" smooth="yes"/>
      <point x="149" y="473" type="line" smooth="yes"/>
      <point x="87" y="438"/>
      <point x="53" y="406"/>
      <point x="53" y="358" type="curve" smooth="yes"/>
      <point x="53" y="310"/>
      <point x="87" y="278"/>
      <point x="149" y="243" type="curve" smooth="yes"/>
      <point x="303" y="156" type="line" smooth="yes"/>
      <point x="355" y="126"/>
      <point x="387" y="118"/>
      <point x="425" y="118" type="curve" smooth="yes"/>
      <point x="472" y="118"/>
      <point x="526" y="150"/>
      <point x="526" y="223" type="curve" smooth="yes"/>
      <point x="526" y="302"/>
      <point x="483" y="336"/>
      <point x="433" y="336" type="curve" smooth="yes"/>
      <point x="415" y="336"/>
      <point x="382" y="324"/>
      <point x="350" y="294" type="curve" smooth="yes"/>
      <point x="318" y="264" type="line" smooth="yes"/>
      <point x="284" y="232"/>
      <point x="259" y="233"/>
      <point x="233" y="246" type="curve" smooth="yes"/>
      <point x="204" y="261"/>
      <point x="196" y="290"/>
    </contour>
  </outline>
</glyph>
<glyph name="euro" format="2">
  <advance width="850"/>
  <unicode hex="20AC"/>
  <anchor x="462" y="0" name="bottom"/>
  <outline>
    <contour>
      <point x="458" y="622"/>
      <point x="449" y="646"/>
      <point x="449" y="669" type="curve" smooth="yes"/>
      <point x="449" y="716"/>
      <point x="515" y="760"/>
      <point x="567" y="710" type="curve" smooth="yes"/>
      <point x="722" y="561" type="line" smooth="yes"/>
      <point x="769" y="515"/>
      <point x="825" y="566"/>
      <point x="825" y="627" type="curve" smooth="yes"/>
      <point x="825" y="701"/>
      <point x="762" y="775"/>
      <point x="585" y="775" type="curve" smooth="yes"/>
      <point x="424" y="775"/>
      <point x="347" y="724"/>
      <point x="260" y="614" type="curve" smooth="yes"/>
      <point x="226" y="571"/>
      <point x="199" y="558"/>
      <point x="169" y="547" type="curve" smooth="yes"/>
      <point x="88" y="518" type="line" smooth="yes"/>
      <point x="67" y="511"/>
      <point x="50" y="507"/>
      <point x="50" y="485" type="curve" smooth="yes"/>
      <point x="50" y="468"/>
      <point x="61" y="457"/>
      <point x="91" y="440" type="curve" smooth="yes"/>
      <point x="102" y="434"/>
      <point x="115" y="420"/>
      <point x="115" y="407" type="curve" smooth="yes"/>
      <point x="115" y="383"/>
      <point x="100" y="374"/>
      <point x="83" y="370" type="curve" smooth="yes"/>
      <point x="56" y="363" type="line" smooth="yes"/>
      <point x="35" y="358"/>
      <point x="15" y="347"/>
      <point x="15" y="318" type="curve" smooth="yes"/>
      <point x="15" y="301"/>
      <point x="27" y="291"/>
      <point x="66" y="273" type="curve" smooth="yes"/>
      <point x="111" y="252" type="line" smooth="yes"/>
      <point x="183" y="219"/>
      <point x="203" y="198"/>
      <point x="225" y="149" type="curve" smooth="yes"/>
      <point x="276" y="36"/>
      <point x="348" y="-15"/>
      <point x="533" y="-15" type="curve" smooth="yes"/>
      <point x="768" y="-15"/>
      <point x="800" y="55"/>
      <point x="802" y="106" type="curve" smooth="yes"/>
      <point x="804" y="157"/>
      <point x="746" y="190"/>
      <point x="688" y="162" type="curve" smooth="yes"/>
      <point x="454" y="50" type="line" smooth="yes"/>
      <point x="361" y="5"/>
      <point x="306" y="129"/>
      <point x="417" y="185" type="curve" smooth="yes"/>
      <point x="622" y="289" type="line" smooth="yes"/>
      <point x="650" y="303"/>
      <point x="658" y="305"/>
      <point x="658" y="322" type="curve" smooth="yes"/>
      <point x="658" y="338"/>
      <point x="649" y="351"/>
      <point x="620" y="350" type="curve" smooth="yes"/>
      <point x="254" y="340" type="line" smooth="yes"/>
      <point x="213" y="339"/>
      <point x="169" y="356"/>
      <point x="169" y="403" type="curve" smooth="yes"/>
      <point x="169" y="459"/>
      <point x="213" y="473"/>
      <point x="259" y="468" type="curve" smooth="yes"/>
      <point x="650" y="422" type="line" smooth="yes"/>
      <point x="679" y="419"/>
      <point x="688" y="428"/>
      <point x="688" y="445" type="curve" smooth="yes"/>
      <point x="688" y="461"/>
      <point x="677" y="466"/>
      <point x="652" y="484" type="curve" smooth="yes"/>
      <point x="486" y="602" type="line" smooth="yes"/>
    </contour>
  </outline>
</glyph>
<glyph name="A.ss03" format="2">
  <advance width="800"/>
  <anchor x="631" y="0" name="right"/>
  <anchor x="518" y="760" name="top"/>
  <outline>
    <contour>
      <point x="30" y="112" type="curve" smooth="yes"/>
      <point x="30" y="18"/>
      <point x="95" y="-15"/>
      <point x="153" y="-15" type="curve" smooth="yes"/>
      <point x="235" y="-15"/>
      <point x="309" y="59"/>
      <point x="355" y="98" type="curve" smooth="yes"/>
      <point x="453" y="182" type="line" smooth="yes"/>
      <point x="488" y="212"/>
      <point x="517" y="205"/>
      <point x="517" y="150" type="curve" smooth="yes"/>
      <point x="517" y="98" type="line" smooth="yes"/>
      <point x="517" y="37"/>
      <point x="556" y="-15"/>
      <point x="638" y="-15" type="curve" smooth="yes"/>
      <point x="741" y="-15"/>
      <point x="775" y="71"/>
      <point x="754" y="183" type="curve" smooth="yes"/>
      <point x="663" y="664" type="line" smooth="yes"/>
      <point x="650" y="732"/>
      <point x="609" y="775"/>
      <point x="549" y="775" type="curve" smooth="yes"/>
      <point x="484" y="775"/>
      <point x="448" y="749"/>
      <point x="361" y="680" type="curve" smooth="yes"/>
      <point x="160" y="520" type="line" smooth="yes"/>
      <point x="114" y="483"/>
      <point x="84" y="444"/>
      <point x="84" y="401" type="curve" smooth="yes"/>
      <point x="84" y="343"/>
      <point x="126" y="300"/>
      <point x="180" y="290" type="curve" smooth="yes"/>
      <point x="206" y="285"/>
      <point x="213" y="276"/>
      <point x="213" y="260" type="curve" smooth="yes"/>
      <point x="213" y="239"/>
      <point x="203" y="231"/>
      <point x="170" y="227" type="curve" smooth="yes"/>
      <point x="91" y="217"/>
      <point x="30" y="186"/>
    </contour>
    <contour>
      <point x="262" y="255" type="curve" smooth="yes"/>
      <point x="262" y="262"/>
      <point x="268" y="273"/>
      <point x="273" y="283" type="curve" smooth="yes"/>
      <point x="437" y="617" type="line"/>
      <point x="452" y="648"/>
      <point x="488" y="724"/>
      <point x="530" y="732" type="curve" smooth="yes"/>
      <point x="572" y="740"/>
      <point x="599" y="705"/>
      <point x="592" y="650" type="curve" smooth="yes"/>
      <point x="549" y="296" type="line" smooth="yes"/>
      <point x="543" y="245"/>
      <point x="505" y="234"/>
      <point x="448" y="233" type="curve" smooth="yes"/>
      <point x="287" y="229" type="line" smooth="yes"/>
      <point x="269" y="229"/>
      <point x="262" y="239"/>
    </contour>
  </outline>
</glyph>
<glyph name="A.ss04" format="2">
  <advance width="850"/>
  <outline>
    <contour>
      <point x="76" y="203" type="line" smooth="yes"/>
      <point x="32" y="170"/>
      <point x="1" y="119"/>
      <point x="2" y="74" type="curve" smooth="yes"/>
      <point x="4" y="25"/>
      <point x="42" y="-15"/>
      <point x="99" y="-15" type="curve" smooth="yes"/>
      <point x="203" y="-15"/>
      <point x="224" y="49"/>
      <point x="235" y="87" type="curve" smooth="yes"/>
      <point x="274" y="222" type="line" smooth="yes"/>
      <point x="286" y="264"/>
      <point x="295" y="288"/>
      <point x="339" y="285" type="curve" smooth="yes"/>
      <point x="609" y="269" type="line" smooth="yes"/>
      <point x="724" y="262"/>
      <point x="722" y="216"/>
      <point x="638" y="167" type="curve" smooth="yes"/>
      <point x="584" y="136"/>
      <point x="563" y="95"/>
      <point x="563" y="61" type="curve" smooth="yes"/>
      <point x="563" y="19"/>
      <point x="594" y="-15"/>
      <point x="640" y="-15" type="curve" smooth="yes"/>
      <point x="749" y="-15"/>
      <point x="790" y="56"/>
      <point x="790" y="210" type="curve" smooth="yes"/>
      <point x="790" y="552" type="line" smooth="yes"/>
      <point x="790" y="699"/>
      <point x="712" y="774"/>
      <point x="590" y="774" type="curve" smooth="yes"/>
      <point x="518" y="775"/>
      <point x="430" y="749"/>
      <point x="334" y="696" type="curve" smooth="yes"/>
      <point x="211" y="629"/>
      <point x="164" y="555"/>
      <point x="164" y="501" type="curve" smooth="yes"/>
      <point x="164" y="454"/>
      <point x="198" y="423"/>
      <point x="247" y="423" type="curve" smooth="yes"/>
      <point x="288" y="423"/>
      <point x="305" y="410"/>
      <point x="303" y="392" type="curve" smooth="yes"/>
      <point x="301" y="378"/>
      <point x="291" y="364"/>
      <point x="251" y="334" type="curve" smooth="yes"/>
    </contour>
    <contour>
      <point x="617" y="378" type="curve" smooth="yes"/>
      <point x="396" y="330" type="line" smooth="yes"/>
      <point x="330" y="316"/>
      <point x="320" y="331"/>
      <point x="349" y="391" type="curve" smooth="yes"/>
      <point x="477" y="660" type="line" smooth="yes"/>
      <point x="494" y="697"/>
      <point x="517" y="717"/>
      <point x="540" y="718" type="curve" smooth="yes"/>
      <point x="560" y="719"/>
      <point x="581" y="705"/>
      <point x="599" y="653" type="curve" smooth="yes"/>
      <point x="665" y="456" type="line" smooth="yes"/>
      <point x="683" y="404"/>
      <point x="678" y="391"/>
    </contour>
  </outline>
</glyph>
<glyph name="Dje-cy.ss03" format="2">
  <advance width="991"/>
  <outline>
    <contour>
      <point x="15" y="529" type="curve" smooth="yes"/>
      <point x="15" y="461"/>
      <point x="57" y="410"/>
      <point x="117" y="410" type="curve" smooth="yes"/>
      <point x="156" y="410"/>
      <point x="183" y="426"/>
      <point x="204" y="459" type="curve" smooth="yes"/>
      <point x="224" y="490"/>
      <point x="235" y="498"/>
      <point x="268" y="494" type="curve" smooth="yes"/>
      <point x="304" y="490"/>
      <point x="309" y="460"/>
      <point x="307" y="415" type="curve" smooth="yes"/>
      <point x="296" y="146" type="line" smooth="yes"/>
      <point x="291" y="30"/>
      <point x="345" y="-15"/>
      <point x="424" y="-15" type="curve" smooth="yes"/>
      <point x="533" y="-15"/>
      <point x="560" y="92"/>
      <point x="481" y="169" type="curve" smooth="yes"/>
      <point x="445" y="204" type="line" smooth="yes"/>
      <point x="417" y="232"/>
      <point x="425" y="267"/>
      <point x="458" y="276" type="curve" smooth="yes"/>
      <point x="774" y="358" type="line" smooth="yes"/>
      <point x="905" y="392"/>
      <point x="940" y="217"/>
      <point x="828" y="185" type="curve" smooth="yes"/>
      <point x="709" y="151" type="line" smooth="yes"/>
      <point x="625" y="127"/>
      <point x="585" y="86"/>
      <point x="585" y="27" type="curve" smooth="yes"/>
      <point x="585" y="-79"/>
      <point x="729" y="-114"/>
      <point x="814" y="-6" type="curve" smooth="yes"/>
      <point x="857" y="49" type="line" smooth="yes"/>
      <point x="912" y="119"/>
      <point x="946" y="173"/>
      <point x="946" y="249" type="curve" smooth="yes"/>
      <point x="946" y="327"/>
      <point x="918" y="379"/>
      <point x="854" y="416" type="curve" smooth="yes"/>
      <point x="771" y="464" type="line" smooth="yes"/>
      <point x="671" y="522"/>
      <point x="595" y="517"/>
      <point x="516" y="424" type="curve" smooth="yes"/>
      <point x="419" y="310" type="line" smooth="yes"/>
      <point x="384" y="269"/>
      <point x="329" y="300"/>
      <point x="352" y="353" type="curve" smooth="yes"/>
      <point x="497" y="690" type="line" smooth="yes"/>
      <point x="512" y="726"/>
      <point x="550" y="730"/>
      <point x="577" y="698" type="curve" smooth="yes"/>
      <point x="641" y="622" type="line" smooth="yes"/>
      <point x="681" y="574"/>
      <point x="718" y="548"/>
      <point x="768" y="548" type="curve" smooth="yes"/>
      <point x="828" y="548"/>
      <point x="871" y="590"/>
      <point x="871" y="649" type="curve" smooth="yes"/>
      <point x="871" y="726"/>
      <point x="807" y="760"/>
      <point x="735" y="760" type="curve" smooth="yes"/>
      <point x="291" y="760" type="line" smooth="yes"/>
      <point x="125" y="760"/>
      <point x="15" y="660"/>
    </contour>
    <contour>
      <point x="232" y="583" type="curve" smooth="yes"/>
      <point x="232" y="647" type="line" smooth="yes"/>
      <point x="232" y="691"/>
      <point x="242" y="724"/>
      <point x="276" y="724" type="curve" smooth="yes"/>
      <point x="303" y="724"/>
      <point x="317" y="698"/>
      <point x="315" y="631" type="curve" smooth="yes"/>
      <point x="312" y="545"/>
      <point x="304" y="533"/>
      <point x="273" y="533" type="curve" smooth="yes"/>
      <point x="250" y="533"/>
      <point x="232" y="549"/>
    </contour>
  </outline>
</glyph>
<glyph name="Ef-cy.loclBGR" format="2">
  <advance width="1219"/>
  <outline>
    <contour>
      <point x="60" y="255" type="line" smooth="yes"/>
      <point x="58" y="67"/>
      <point x="136" y="-10"/>
      <point x="231" y="-10" type="curve" smooth="yes"/>
      <point x="304" y="-10"/>
      <point x="353" y="17"/>
      <point x="411" y="66" type="curve" smooth="yes"/>
      <point x="548" y="183" type="line" smooth="yes"/>
      <point x="575" y="206"/>
      <point x="606" y="171"/>
      <point x="582" y="143" type="curve" smooth="yes"/>
      <point x="551" y="108" type="line" smooth="yes"/>
      <point x="517" y="69"/>
      <point x="497" y="48"/>
      <point x="497" y="12" type="curve" smooth="yes"/>
      <point x="497" y="-29"/>
      <point x="529" y="-59"/>
      <point x="602" y="-59" type="curve" smooth="yes"/>
      <point x="695" y="-59"/>
      <point x="737" y="-4"/>
      <point x="702" y="73" type="curve" smooth="yes"/>
      <point x="629" y="232" type="line" smooth="yes"/>
      <point x="606" y="282"/>
      <point x="679" y="317"/>
      <point x="705" y="264" type="curve" smooth="yes"/>
      <point x="779" y="114" type="line" smooth="yes"/>
      <point x="822" y="26"/>
      <point x="869" y="-10"/>
      <point x="952" y="-10" type="curve" smooth="yes"/>
      <point x="1069" y="-10"/>
      <point x="1154" y="75"/>
      <point x="1156" y="256" type="curve" smooth="yes"/>
      <point x="1159" y="512" type="line" smooth="yes"/>
      <point x="1161" y="694"/>
      <point x="1086" y="769"/>
      <point x="994" y="769" type="curve" smooth="yes"/>
      <point x="933" y="769"/>
      <point x="879" y="754"/>
      <point x="818" y="695" type="curve" smooth="yes"/>
      <point x="667" y="550" type="line" smooth="yes"/>
      <point x="638" y="523"/>
      <point x="596" y="558"/>
      <point x="627" y="593" type="curve" smooth="yes"/>
      <point x="672" y="645" type="line" smooth="yes"/>
      <point x="700" y="677"/>
      <point x="728" y="706"/>
      <point x="728" y="741" type="curve" smooth="yes"/>
      <point x="728" y="781"/>
      <point x="691" y="819"/>
      <point x="612" y="819" type="curve" smooth="yes"/>
      <point x="517" y="819"/>
      <point x="473" y="772"/>
      <point x="508" y="683" type="curve" smooth="yes"/>
      <point x="575" y="512" type="line" smooth="yes"/>
      <point x="599" y="452"/>
      <point x="517" y="414"/>
      <point x="492" y="475" type="curve" smooth="yes"/>
      <point x="417" y="656" type="line" smooth="yes"/>
      <point x="387" y="729"/>
      <point x="338" y="769"/>
      <point x="263" y="769" type="curve" smooth="yes"/>
      <point x="162" y="769"/>
      <point x="65" y="696"/>
      <point x="63" y="506" type="curve" smooth="yes"/>
    </contour>
    <contour>
      <point x="211" y="591" type="curve" smooth="yes"/>
      <point x="532" y="361" type="line" smooth="yes"/>
      <point x="576" y="329"/>
      <point x="575" y="277"/>
      <point x="536" y="244" type="curve" smooth="yes"/>
      <point x="408" y="134" type="line" smooth="yes"/>
      <point x="357" y="90"/>
      <point x="306" y="102"/>
      <point x="282" y="154" type="curve" smooth="yes"/>
      <point x="117" y="516" type="line" smooth="yes"/>
      <point x="86" y="584"/>
      <point x="151" y="634"/>
    </contour>
    <contour>
      <point x="999" y="143" type="curve" smooth="yes"/>
      <point x="698" y="381" type="line" smooth="yes"/>
      <point x="644" y="423"/>
      <point x="667" y="474"/>
      <point x="702" y="501" type="curve" smooth="yes"/>
      <point x="851" y="618" type="line" smooth="yes"/>
      <point x="906" y="661"/>
      <point x="943" y="641"/>
      <point x="963" y="587" type="curve" smooth="yes"/>
      <point x="1100" y="220" type="line" smooth="yes"/>
      <point x="1129" y="143"/>
      <point x="1054" y="100"/>
    </contour>
  </outline>
</glyph>
<glyph name="Ereversed-cy.ss03" format="2">
  <advance width="830"/>
  <outline>
    <contour>
      <point x="770" y="407" type="curve" smooth="yes"/>
      <point x="770" y="613"/>
      <point x="611" y="775"/>
      <point x="403" y="775" type="curve" smooth="yes"/>
      <point x="187" y="775"/>
      <point x="74" y="653"/>
      <point x="74" y="544" type="curve" smooth="yes"/>
      <point x="74" y="470"/>
      <point x="114" y="434"/>
      <point x="185" y="434" type="curve" smooth="yes"/>
      <point x="253" y="434"/>
      <point x="294" y="484"/>
      <point x="279" y="563" type="curve" smooth="yes"/>
      <point x="263" y="650" type="line" smooth="yes"/>
      <point x="255" y="695"/>
      <point x="280" y="724"/>
      <point x="326" y="697" type="curve" smooth="yes"/>
      <point x="660" y="501" type="line" smooth="yes"/>
      <point x="703" y="476"/>
      <point x="691" y="434"/>
      <point x="643" y="434" type="curve" smooth="yes"/>
      <point x="403" y="434" type="line" smooth="yes"/>
      <point x="322" y="434"/>
      <point x="288" y="403"/>
      <point x="288" y="341" type="curve" smooth="yes"/>
      <point x="288" y="314"/>
      <point x="294" y="293"/>
      <point x="311" y="267" type="curve" smooth="yes"/>
      <point x="341" y="220"/>
      <point x="275" y="179"/>
      <point x="245" y="227" type="curve" smooth="yes"/>
      <point x="180" y="331"/>
      <point x="60" y="284"/>
      <point x="60" y="196" type="curve" smooth="yes"/>
      <point x="60" y="71"/>
      <point x="187" y="-15"/>
      <point x="358" y="-15" type="curve" smooth="yes"/>
      <point x="616" y="-15"/>
      <point x="770" y="144"/>
    </contour>
    <contour>
      <point x="672" y="291" type="curve" smooth="yes"/>
      <point x="326" y="63" type="line" smooth="yes"/>
      <point x="258" y="18"/>
      <point x="201" y="101"/>
      <point x="268" y="145" type="curve" smooth="yes"/>
      <point x="613" y="372" type="line" smooth="yes"/>
      <point x="672" y="411"/>
      <point x="729" y="329"/>
    </contour>
  </outline>
</glyph>
<glyph name="J.ss03" format="2">
  <advance width="526"/>
  <outline>
    <contour>
      <point x="30" y="195" type="curve" smooth="yes"/>
      <point x="30" y="91"/>
      <point x="131" y="-15"/>
      <point x="284" y="-15" type="curve" smooth="yes"/>
      <point x="438" y="-15"/>
      <point x="466" y="72"/>
      <point x="466" y="249" type="curve" smooth="yes"/>
      <point x="466" y="627" type="line" smooth="yes"/>
      <point x="466" y="741"/>
      <point x="401" y="776"/>
      <point x="345" y="776" type="curve" smooth="yes"/>
      <point x="261" y="776"/>
      <point x="235" y="711"/>
      <point x="235" y="660" type="curve" smooth="yes"/>
      <point x="235" y="619"/>
      <point x="256" y="561"/>
      <point x="278" y="520" type="curve" smooth="yes"/>
      <point x="282" y="513"/>
      <point x="284" y="507"/>
      <point x="284" y="501" type="curve" smooth="yes"/>
      <point x="284" y="470"/>
      <point x="247" y="445"/>
      <point x="180" y="445" type="curve" smooth="yes"/>
      <point x="110" y="445"/>
      <point x="30" y="327"/>
    </contour>
    <contour>
      <point x="98" y="198" type="curve" smooth="yes"/>
      <point x="231" y="337" type="line" smooth="yes"/>
      <point x="247" y="354"/>
      <point x="251" y="373"/>
      <point x="251" y="390" type="curve" smooth="yes"/>
      <point x="251" y="420"/>
      <point x="271" y="445"/>
      <point x="299" y="445" type="curve" smooth="yes"/>
      <point x="317" y="445"/>
      <point x="325" y="439"/>
      <point x="334" y="425" type="curve" smooth="yes"/>
      <point x="417" y="282" type="line" smooth="yes"/>
      <point x="449" y="227"/>
      <point x="435" y="186"/>
      <point x="394" y="178" type="curve" smooth="yes"/>
      <point x="127" y="125" type="line" smooth="yes"/>
      <point x="88" y="117"/>
      <point x="60" y="157"/>
    </contour>
  </outline>
</glyph>
<glyph name="S.ss04" format="2">
  <advance width="645"/>
  <outline>
    <contour>
      <point x="623" y="669"/>
      <point x="458" y="775"/>
      <point x="288" y="775" type="curve" smooth="yes"/>
      <point x="170" y="775"/>
      <point x="83" y="735"/>
      <point x="71" y="660" type="curve" smooth="yes"/>
      <point x="64" y="617"/>
      <point x="86" y="547"/>
      <point x="174" y="489" type="curve" smooth="yes"/>
      <point x="459" y="301" type="line" smooth="yes"/>
      <point x="506" y="270"/>
      <point x="506" y="216"/>
      <point x="449" y="194" type="curve" smooth="yes"/>
      <point x="181" y="91" type="line" smooth="yes"/>
      <point x="146" y="78"/>
      <point x="107" y="114"/>
      <point x="134" y="152" type="curve" smooth="yes"/>
      <point x="233" y="290" type="line" smooth="yes"/>
      <point x="245" y="307"/>
      <point x="249" y="327"/>
      <point x="246" y="343" type="curve" smooth="yes"/>
      <point x="239" y="375"/>
      <point x="204" y="392"/>
      <point x="163" y="379" type="curve" smooth="yes"/>
      <point x="98" y="358"/>
      <point x="31" y="274"/>
      <point x="59" y="155" type="curve" smooth="yes"/>
      <point x="85" y="44"/>
      <point x="192" y="-15"/>
      <point x="347" y="-15" type="curve" smooth="yes"/>
      <point x="556" y="-15"/>
      <point x="643" y="162"/>
      <point x="542" y="290" type="curve" smooth="yes"/>
      <point x="263" y="644" type="line" smooth="yes"/>
      <point x="223" y="694"/>
      <point x="240" y="716"/>
      <point x="258" y="726" type="curve" smooth="yes"/>
      <point x="274" y="735"/>
      <point x="298" y="732"/>
      <point x="326" y="702" type="curve" smooth="yes"/>
      <point x="428" y="592" type="line" smooth="yes"/>
      <point x="477" y="539"/>
      <point x="543" y="554"/>
      <point x="569" y="591" type="curve" smooth="yes"/>
    </contour>
  </outline>
</glyph>
<glyph name="Sha-cy.ss03" format="2">
  <advance width="1125"/>
  <outline>
    <contour>
      <point x="918" y="250" type="line" smooth="yes"/>
      <point x="896" y="256"/>
      <point x="890" y="279"/>
      <point x="905" y="304" type="curve" smooth="yes"/>
      <point x="1066" y="572" type="line" smooth="yes"/>
      <point x="1132" y="682"/>
      <point x="1077" y="775"/>
      <point x="983" y="775" type="curve" smooth="yes"/>
      <point x="929" y="775"/>
      <point x="889" y="747"/>
      <point x="866" y="697" type="curve" smooth="yes"/>
      <point x="850" y="663"/>
      <point x="832" y="653"/>
      <point x="802" y="653" type="curve" smooth="yes"/>
      <point x="760" y="653"/>
      <point x="739" y="670"/>
      <point x="719" y="706" type="curve" smooth="yes"/>
      <point x="694" y="749"/>
      <point x="669" y="775"/>
      <point x="627" y="775" type="curve" smooth="yes"/>
      <point x="582" y="775"/>
      <point x="552" y="755"/>
      <point x="516" y="690" type="curve" smooth="yes"/>
      <point x="263" y="231" type="line" smooth="yes"/>
      <point x="211" y="137"/>
      <point x="76" y="189"/>
      <point x="135" y="296" type="curve" smooth="yes"/>
      <point x="258" y="520" type="line" smooth="yes"/>
      <point x="292" y="582"/>
      <point x="311" y="628"/>
      <point x="311" y="671" type="curve" smooth="yes"/>
      <point x="311" y="732"/>
      <point x="271" y="775"/>
      <point x="208" y="775" type="curve" smooth="yes"/>
      <point x="133" y="775"/>
      <point x="93" y="735"/>
      <point x="88" y="640" type="curve" smooth="yes"/>
      <point x="62" y="158" type="line" smooth="yes"/>
      <point x="56" y="46"/>
      <point x="111" y="-15"/>
      <point x="201" y="-15" type="curve" smooth="yes"/>
      <point x="295" y="-15"/>
      <point x="361" y="26"/>
      <point x="376" y="156" type="curve" smooth="yes"/>
      <point x="400" y="360" type="line" smooth="yes"/>
      <point x="408" y="430"/>
      <point x="489" y="431"/>
      <point x="493" y="360" type="curve" smooth="yes"/>
      <point x="509" y="102" type="line" smooth="yes"/>
      <point x="514" y="23"/>
      <point x="547" y="-15"/>
      <point x="605" y="-15" type="curve" smooth="yes"/>
      <point x="659" y="-15"/>
      <point x="692" y="19"/>
      <point x="717" y="69" type="curve" smooth="yes"/>
      <point x="786" y="206" type="line" smooth="yes"/>
      <point x="807" y="247"/>
      <point x="845" y="246"/>
      <point x="856" y="199" type="curve" smooth="yes"/>
      <point x="876" y="110" type="line" smooth="yes"/>
      <point x="894" y="29"/>
      <point x="932" y="0"/>
      <point x="995" y="0" type="curve" smooth="yes"/>
      <point x="1061" y="0"/>
      <point x="1100" y="41"/>
      <point x="1100" y="104" type="curve" smooth="yes"/>
      <point x="1100" y="178"/>
      <point x="1065" y="210"/>
      <point x="992" y="230" type="curve" smooth="yes"/>
    </contour>
    <contour>
      <point x="859" y="375" type="line" smooth="yes"/>
      <point x="859" y="331"/>
      <point x="846" y="305"/>
      <point x="804" y="287" type="curve" smooth="yes"/>
      <point x="614" y="204" type="line" smooth="yes"/>
      <point x="580" y="189"/>
      <point x="550" y="213"/>
      <point x="550" y="241" type="curve" smooth="yes"/>
      <point x="550" y="263"/>
      <point x="551" y="273"/>
      <point x="569" y="314" type="curve" smooth="yes"/>
      <point x="676" y="565" type="line" smooth="yes"/>
      <point x="694" y="608"/>
      <point x="717" y="620"/>
      <point x="755" y="620" type="curve" smooth="yes"/>
      <point x="820" y="619"/>
      <point x="859" y="582"/>
      <point x="859" y="520" type="curve" smooth="yes"/>
    </contour>
  </outline>
</glyph>
<glyph name="T.ss03" format="2">
  <advance width="765"/>
  <outline>
    <contour>
      <point x="10" y="521" type="curve" smooth="yes"/>
      <point x="10" y="459"/>
      <point x="58" y="404"/>
      <point x="122" y="402" type="curve" smooth="yes"/>
      <point x="169" y="400"/>
      <point x="199" y="417"/>
      <point x="218" y="453" type="curve" smooth="yes"/>
      <point x="236" y="485"/>
      <point x="246" y="500"/>
      <point x="278" y="494" type="curve" smooth="yes"/>
      <point x="314" y="487"/>
      <point x="328" y="461"/>
      <point x="329" y="416" type="curve" smooth="yes"/>
      <point x="336" y="146" type="line" smooth="yes"/>
      <point x="336" y="40"/>
      <point x="358" y="-15"/>
      <point x="454" y="-15" type="curve" smooth="yes"/>
      <point x="561" y="-15"/>
      <point x="580" y="61"/>
      <point x="542" y="171" type="curve" smooth="yes"/>
      <point x="382" y="639" type="line" smooth="yes"/>
      <point x="362" y="696"/>
      <point x="372" y="719"/>
      <point x="399" y="719" type="curve" smooth="yes"/>
      <point x="408" y="719"/>
      <point x="419" y="714"/>
      <point x="429" y="703" type="curve" smooth="yes"/>
      <point x="540" y="578" type="line" smooth="yes"/>
      <point x="631" y="475"/>
      <point x="780" y="534"/>
      <point x="780" y="649" type="curve" smooth="yes"/>
      <point x="780" y="700"/>
      <point x="747" y="760"/>
      <point x="643" y="760" type="curve" smooth="yes"/>
      <point x="301" y="760" type="line" smooth="yes"/>
      <point x="120" y="760"/>
      <point x="10" y="660"/>
    </contour>
    <contour>
      <point x="242" y="583" type="curve" smooth="yes"/>
      <point x="242" y="647" type="line" smooth="yes"/>
      <point x="242" y="691"/>
      <point x="252" y="724"/>
      <point x="286" y="724" type="curve" smooth="yes"/>
      <point x="316" y="724"/>
      <point x="325" y="683"/>
      <point x="325" y="595" type="curve" smooth="yes"/>
      <point x="325" y="545"/>
      <point x="314" y="525"/>
      <point x="283" y="533" type="curve" smooth="yes"/>
      <point x="260" y="539"/>
      <point x="242" y="549"/>
    </contour>
  </outline>
</glyph>
<glyph name="W.ss03" format="2">
  <advance width="1146"/>
  <anchor x="637" y="760" name="top"/>
  <outline>
    <contour>
      <point x="30" y="447" type="curve" smooth="yes"/>
      <point x="30" y="421"/>
      <point x="53" y="405"/>
      <point x="71" y="405" type="curve" smooth="yes"/>
      <point x="103" y="405"/>
      <point x="122" y="423"/>
      <point x="127" y="466" type="curve" smooth="yes"/>
      <point x="151" y="648" type="line" smooth="yes"/>
      <point x="156" y="686"/>
      <point x="179" y="701"/>
      <point x="202" y="701" type="curve" smooth="yes"/>
      <point x="227" y="701"/>
      <point x="241" y="679"/>
      <point x="234" y="640" type="curve" smooth="yes"/>
      <point x="145" y="194" type="line" smooth="yes"/>
      <point x="141" y="173"/>
      <point x="140" y="154"/>
      <point x="140" y="136" type="curve" smooth="yes"/>
      <point x="140" y="37"/>
      <point x="200" y="-15"/>
      <point x="282" y="-15" type="curve" smooth="yes"/>
      <point x="323" y="-15"/>
      <point x="372" y="7"/>
      <point x="405" y="53" type="curve" smooth="yes"/>
      <point x="684" y="444" type="line" smooth="yes"/>
      <point x="694" y="458"/>
      <point x="707" y="471"/>
      <point x="723" y="471" type="curve" smooth="yes"/>
      <point x="736" y="471"/>
      <point x="741" y="460"/>
      <point x="741" y="449" type="curve" smooth="yes"/>
      <point x="741" y="442"/>
      <point x="739" y="432"/>
      <point x="735" y="424" type="curve" smooth="yes"/>
      <point x="661" y="265" type="line" smooth="yes"/>
      <point x="580" y="91"/>
      <point x="610" y="-15"/>
      <point x="759" y="-15" type="curve" smooth="yes"/>
      <point x="974" y="-15"/>
      <point x="1096" y="275"/>
      <point x="1096" y="470" type="curve" smooth="yes"/>
      <point x="1096" y="700"/>
      <point x="1049" y="775"/>
      <point x="971" y="775" type="curve" smooth="yes"/>
      <point x="894" y="775"/>
      <point x="844" y="730"/>
      <point x="844" y="674" type="curve" smooth="yes"/>
      <point x="844" y="658"/>
      <point x="852" y="643"/>
      <point x="860" y="624" type="curve" smooth="yes"/>
      <point x="879" y="581"/>
      <point x="846" y="557"/>
      <point x="810" y="557" type="curve" smooth="yes"/>
      <point x="775" y="557"/>
      <point x="754" y="570"/>
      <point x="742" y="600" type="curve" smooth="yes"/>
      <point x="730" y="631"/>
      <point x="707" y="645"/>
      <point x="676" y="645" type="curve" smooth="yes"/>
      <point x="652" y="645"/>
      <point x="628" y="634"/>
      <point x="607" y="618" type="curve" smooth="yes"/>
      <point x="523" y="553"/>
      <point x="445" y="601"/>
      <point x="448" y="675" type="curve" smooth="yes"/>
      <point x="450" y="735"/>
      <point x="402" y="775"/>
      <point x="289" y="775" type="curve" smooth="yes"/>
      <point x="128" y="775"/>
      <point x="30" y="585"/>
    </contour>
    <contour>
      <point x="203" y="207" type="curve" smooth="yes"/>
      <point x="203" y="234"/>
      <point x="217" y="256"/>
      <point x="241" y="293" type="curve" smooth="yes"/>
      <point x="386" y="523" type="line" smooth="yes"/>
      <point x="405" y="553"/>
      <point x="424" y="562"/>
      <point x="447" y="562" type="curve" smooth="yes"/>
      <point x="488" y="562"/>
      <point x="523" y="508"/>
      <point x="481" y="445" type="curve" smooth="yes"/>
      <point x="332" y="222" type="line" smooth="yes"/>
      <point x="300" y="174"/>
      <point x="283" y="156"/>
      <point x="257" y="156" type="curve" smooth="yes"/>
      <point x="221" y="156"/>
      <point x="203" y="177"/>
    </contour>
    <contour>
      <point x="785" y="425" type="line" smooth="yes"/>
      <point x="770" y="493"/>
      <point x="815" y="532"/>
      <point x="885" y="532" type="curve" smooth="yes"/>
      <point x="909" y="532"/>
      <point x="930" y="524"/>
      <point x="952" y="495" type="curve" smooth="yes"/>
      <point x="1023" y="397" type="line" smooth="yes"/>
      <point x="1034" y="382"/>
      <point x="1040" y="368"/>
      <point x="1040" y="353" type="curve" smooth="yes"/>
      <point x="1040" y="335"/>
      <point x="1032" y="316"/>
      <point x="1019" y="293" type="curve" smooth="yes"/>
      <point x="980" y="221" type="line" smooth="yes"/>
      <point x="952" y="169"/>
      <point x="929" y="160"/>
      <point x="901" y="160" type="curve" smooth="yes"/>
      <point x="860" y="160"/>
      <point x="838" y="193"/>
      <point x="826" y="244" type="curve" smooth="yes"/>
    </contour>
  </outline>
</glyph>
<glyph name="ampersand.ss04" format="2">
  <advance width="927"/>
  <outline>
    <contour>
      <point x="812" y="433" type="curve" smooth="yes"/>
      <point x="781" y="432"/>
      <point x="753" y="406"/>
      <point x="767" y="360" type="curve" smooth="yes"/>
      <point x="804" y="239" type="line" smooth="yes"/>
      <point x="813" y="210"/>
      <point x="788" y="169"/>
      <point x="756" y="193" type="curve" smooth="yes"/>
      <point x="246" y="584" type="line" smooth="yes"/>
      <point x="207" y="614"/>
      <point x="191" y="629"/>
      <point x="191" y="654" type="curve" smooth="yes"/>
      <point x="191" y="676"/>
      <point x="219" y="719"/>
      <point x="267" y="700" type="curve" smooth="yes"/>
      <point x="640" y="557" type="line" smooth="yes"/>
      <point x="725" y="524"/>
      <point x="771" y="551"/>
      <point x="774" y="611" type="curve" smooth="yes"/>
      <point x="777" y="668"/>
      <point x="749" y="700"/>
      <point x="696" y="725" type="curve" smooth="yes"/>
      <point x="638" y="752"/>
      <point x="524" y="775"/>
      <point x="390" y="774" type="curve" smooth="yes"/>
      <point x="257" y="773"/>
      <point x="137" y="744"/>
      <point x="137" y="644" type="curve" smooth="yes"/>
      <point x="137" y="619"/>
      <point x="165" y="579"/>
      <point x="207" y="529" type="curve" smooth="yes"/>
      <point x="428" y="271" type="line" smooth="yes"/>
      <point x="466" y="226"/>
      <point x="429" y="197"/>
      <point x="380" y="236" type="curve" smooth="yes"/>
      <point x="246" y="342" type="line" smooth="yes"/>
      <point x="132" y="432"/>
      <point x="30" y="360"/>
      <point x="30" y="247" type="curve" smooth="yes"/>
      <point x="30" y="87"/>
      <point x="128" y="-15"/>
      <point x="266" y="-15" type="curve" smooth="yes"/>
      <point x="356" y="-15"/>
      <point x="403" y="6"/>
      <point x="444" y="87" type="curve" smooth="yes"/>
      <point x="463" y="123" type="line" smooth="yes"/>
      <point x="480" y="157"/>
      <point x="504" y="156"/>
      <point x="521" y="132" type="curve" smooth="yes"/>
      <point x="581" y="51" type="line" smooth="yes"/>
      <point x="610" y="15"/>
      <point x="646" y="-15"/>
      <point x="712" y="-15" type="curve" smooth="yes"/>
      <point x="772" y="-15"/>
      <point x="828" y="18"/>
      <point x="840" y="103" type="curve" smooth="yes"/>
      <point x="876" y="353" type="line" smooth="yes"/>
      <point x="884" y="409"/>
      <point x="846" y="434"/>
    </contour>
    <contour>
      <point x="354" y="203" type="line" smooth="yes"/>
      <point x="381" y="181"/>
      <point x="379" y="137"/>
      <point x="326" y="124" type="curve" smooth="yes"/>
      <point x="170" y="86" type="line" smooth="yes"/>
      <point x="132" y="77"/>
      <point x="102" y="111"/>
      <point x="126" y="139" type="curve" smooth="yes"/>
      <point x="211" y="238" type="line" smooth="yes"/>
      <point x="240" y="271"/>
      <point x="262" y="277"/>
      <point x="292" y="253" type="curve" smooth="yes"/>
    </contour>
  </outline>
</glyph>
<glyph name="question.ss01" format="2">
  <advance width="837"/>
  <outline>
    <contour>
      <point x="496" y="93" type="curve" smooth="yes"/>
      <point x="496" y="149"/>
      <point x="417" y="146"/>
      <point x="320" y="184" type="curve" smooth="yes"/>
      <point x="294" y="195"/>
      <point x="266" y="198"/>
      <point x="277" y="233" type="curve" smooth="yes"/>
      <point x="281" y="245"/>
      <point x="323" y="254"/>
      <point x="345" y="264" type="curve" smooth="yes"/>
      <point x="567" y="360" type="line" smooth="yes"/>
      <point x="690" y="413"/>
      <point x="764" y="479"/>
      <point x="751" y="601" type="curve" smooth="yes"/>
      <point x="721" y="880"/>
      <point x="66" y="796"/>
      <point x="81" y="569" type="curve" smooth="yes"/>
      <point x="90" y="436"/>
      <point x="188" y="429"/>
      <point x="279" y="500" type="curve" smooth="yes"/>
      <point x="519" y="686" type="line" smooth="yes"/>
      <point x="586" y="738"/>
      <point x="686" y="686"/>
      <point x="587" y="601" type="curve" smooth="yes"/>
      <point x="371" y="415"/>
      <point x="230" y="312"/>
      <point x="230" y="149" type="curve" smooth="yes"/>
      <point x="230" y="47"/>
      <point x="288" y="-15"/>
      <point x="366" y="-15" type="curve" smooth="yes"/>
      <point x="433" y="-15"/>
      <point x="496" y="30"/>
    </contour>
  </outline>
</glyph>
